<svg xmlns="http://www.w3.org/2000/svg" xmlns:xlink="http://www.w3.org/1999/xlink" width="880.104" height="771.618" viewBox="0 0 880.104 771.618">
  <defs>
    <linearGradient id="linear-gradient" x1="0.189" y1="0.749" x2="0.587" y2="0.218" gradientUnits="objectBoundingBox">
      <stop offset="0" stop-color="#6e00a4"/>
      <stop offset="1" stop-color="#520052"/>
    </linearGradient>
  </defs>
  <g id="Group_643" data-name="Group 643" transform="translate(-5308.388 -910)">
    <g id="BG" transform="translate(5877.413 589.461)">
      <path id="Path_851" data-name="Path 851" d="M-600.058,1130.549H278.953V360.87c-40.594-8.587-83.338,11.455-97.382,57.961-13.085,43.326-12.439,96.194-52.979,119.5-28.3,16.272-60.7,6.383-90.394,2.575-31.7-4.066-66.416,2.3-94.246,22.568-33.327,24.27-44.87,63.162-58.7,103.775-18.091,53.131-48.111,95.147-98.565,104.74-58.576,11.139-139.453-2.054-188.326,45.2-40.616,39.273-28.854,111.486-61.624,157.179C-507.216,1035.662-613.015,1003.38-600.058,1130.549Z" transform="translate(32.125 -38.392)" fill="url(#linear-gradient)" style="mix-blend-mode: multiply;isolation: isolate"/>
    </g>
    <g id="Image_-_Login_Page" data-name="Image - Login Page" transform="translate(4800.009 958)">
      <path id="Path_685" data-name="Path 685" d="M98.108,770.341c0,1.575,1.285,2.853,3.322,2.853H569.538c2.038,0,3.689-1.277,3.688-2.853h0c0-1.575-1.651-2.853-3.688-2.853H101.43c-2.037,0-3.322,1.277-3.322,2.853Z" transform="translate(658.402 -114.885)" fill="#a1a3b2" opacity="0.6"/>
      <g id="Group_470" data-name="Group 470" transform="translate(759.54 419.161)">
        <g id="Group_461" data-name="Group 461" transform="translate(0 195.464)">
          <path id="Path_686" data-name="Path 686" d="M103.539,725.776a1.575,1.575,0,0,1-1.542-1.9s.262-1.247.785-3.487a1.574,1.574,0,0,1,3.066.716c-.511,2.187-.768,3.408-.77,3.419A1.574,1.574,0,0,1,103.539,725.776Z" transform="translate(-101.963 -719.175)" fill="#a7a9ac"/>
        </g>
        <g id="Group_462" data-name="Group 462" transform="translate(3.545 79.103)">
          <path id="Path_687" data-name="Path 687" d="M108.048,679.646a1.575,1.575,0,0,1-1.522-1.981c.582-2.175,1.2-4.4,1.826-6.606a1.574,1.574,0,1,1,3.027.864c-.625,2.192-1.234,4.4-1.812,6.555A1.574,1.574,0,0,1,108.048,679.646Zm5.091-17.474a1.577,1.577,0,0,1-1.5-2.049c.689-2.177,1.4-4.369,2.123-6.516a1.574,1.574,0,1,1,2.984,1c-.714,2.13-1.421,4.3-2.1,6.463A1.577,1.577,0,0,1,113.139,662.172Zm5.9-17.21a1.575,1.575,0,0,1-1.475-2.124c.807-2.166,1.633-4.319,2.46-6.4a1.574,1.574,0,0,1,2.927,1.162c-.818,2.06-1.637,4.192-2.436,6.337A1.574,1.574,0,0,1,119.039,644.962Zm6.858-16.847a1.557,1.557,0,0,1-.641-.138,1.574,1.574,0,0,1-.8-2.079c.95-2.127,1.922-4.224,2.892-6.234a1.574,1.574,0,0,1,2.835,1.367c-.955,1.983-1.916,4.051-2.852,6.15A1.575,1.575,0,0,1,125.9,628.115ZM232.7,617.2a1.572,1.572,0,0,1-1.42-.894c-.975-2.031-2.01-4.046-3.078-5.988a1.574,1.574,0,1,1,2.758-1.517c1.1,1.994,2.159,4.06,3.158,6.143A1.576,1.576,0,0,1,232.7,617.2Zm-98.7-5.372a1.574,1.574,0,0,1-1.374-2.341c1.147-2.058,2.318-4.058,3.481-5.946a1.575,1.575,0,0,1,2.681,1.652c-1.14,1.848-2.287,3.809-3.411,5.826A1.574,1.574,0,0,1,133.993,611.829ZM223.6,601.471a1.574,1.574,0,0,1-1.295-.676c-1.3-1.87-2.653-3.673-4.022-5.357a1.574,1.574,0,0,1,2.445-1.985c1.417,1.745,2.817,3.611,4.162,5.545a1.574,1.574,0,0,1-1.291,2.473Zm-79.787-4.93a1.573,1.573,0,0,1-1.256-2.521c1.434-1.905,2.9-3.717,4.364-5.386a1.575,1.575,0,0,1,2.369,2.075c-1.41,1.611-2.83,3.362-4.218,5.205A1.57,1.57,0,0,1,143.818,596.542Zm67.915-8.789a1.57,1.57,0,0,1-1.057-.408,59.542,59.542,0,0,0-5.151-4.187,1.574,1.574,0,1,1,1.843-2.553,62.765,62.765,0,0,1,5.425,4.407,1.574,1.574,0,0,1-1.059,2.74Zm-55.5-4.425a1.575,1.575,0,0,1-.994-2.8,50.283,50.283,0,0,1,5.735-4.052,1.575,1.575,0,0,1,1.625,2.7,46.771,46.771,0,0,0-5.373,3.8A1.576,1.576,0,0,1,156.23,583.327Zm40.367-5.471a1.575,1.575,0,0,1-.614-.125,43.661,43.661,0,0,0-6.216-2.107,1.574,1.574,0,0,1,.78-3.051,46.866,46.866,0,0,1,6.667,2.258,1.575,1.575,0,0,1-.616,3.024ZM172.2,575.087a1.574,1.574,0,0,1-.353-3.108,32.313,32.313,0,0,1,7.07-.832h.009a1.575,1.575,0,0,1,.009,3.149,29.181,29.181,0,0,0-6.379.75A1.538,1.538,0,0,1,172.2,575.087Z" transform="translate(-106.472 -571.147)" fill="#a7a9ac"/>
        </g>
        <g id="Group_463" data-name="Group 463" transform="translate(132.622 132.416)">
          <path id="Path_688" data-name="Path 688" d="M273.409,645.471H273.4a1.574,1.574,0,0,1-1.5-1.114c0-.013-.378-1.228-1.128-3.261a2.626,2.626,0,0,1,5.252-.035c-.736,2.109-1.114,3.3-1.119,3.312A1.573,1.573,0,0,1,273.409,645.471Z" transform="translate(-270.678 -638.969)" fill="#a7a9ac"/>
        </g>
        <g id="Group_464" data-name="Group 464" transform="translate(138.974 38.556)">
          <path id="Path_689" data-name="Path 689" d="M280.332,605.662a1.575,1.575,0,0,1-1.464-2.153c.858-2.174,1.75-4.365,2.652-6.513a1.574,1.574,0,0,1,2.9,1.219c-.893,2.126-1.777,4.3-2.626,6.45A1.575,1.575,0,0,1,280.332,605.662Zm7.357-17.148a1.575,1.575,0,0,1-1.427-2.239c.994-2.133,2.018-4.268,3.045-6.342a1.575,1.575,0,1,1,2.822,1.4c-1.017,2.052-2.03,4.162-3.011,6.272A1.575,1.575,0,0,1,287.689,588.514Zm8.439-16.634a1.575,1.575,0,0,1-1.375-2.339c1.162-2.1,2.345-4.15,3.516-6.108a1.575,1.575,0,1,1,2.7,1.618c-1.154,1.927-2.32,3.952-3.466,6.017A1.574,1.574,0,0,1,296.128,571.88Zm111.907-.094a1.574,1.574,0,0,1-1.417-.884c-1.02-2.092-2.085-4.167-3.166-6.167a1.574,1.574,0,0,1,2.771-1.5c1.1,2.038,2.185,4.151,3.224,6.282a1.575,1.575,0,0,1-1.413,2.265ZM305.911,556a1.575,1.575,0,0,1-1.295-2.468c1.367-1.983,2.761-3.91,4.143-5.726a1.575,1.575,0,0,1,2.506,1.907c-1.353,1.777-2.717,3.662-4.056,5.605A1.574,1.574,0,0,1,305.911,556Zm93.009-.476a1.574,1.574,0,0,1-1.324-.722c-1.272-1.972-2.583-3.89-3.9-5.7a1.574,1.574,0,1,1,2.547-1.85c1.349,1.857,2.694,3.823,4,5.844a1.575,1.575,0,0,1-1.322,2.428ZM317.5,541.408a1.574,1.574,0,0,1-1.151-2.649c1.666-1.785,3.366-3.47,5.049-5.011a1.574,1.574,0,0,1,2.125,2.324c-1.622,1.484-3.261,3.112-4.872,4.836A1.568,1.568,0,0,1,317.5,541.408Zm70.115-.693a1.571,1.571,0,0,1-1.16-.509c-1.59-1.729-3.221-3.357-4.848-4.837a1.574,1.574,0,1,1,2.12-2.328c1.695,1.543,3.394,3.237,5.046,5.035a1.575,1.575,0,0,1-1.158,2.64Zm-55.95-11.341a1.574,1.574,0,0,1-.843-2.905,50.473,50.473,0,0,1,6.34-3.418,1.574,1.574,0,0,1,1.285,2.875,47.27,47.27,0,0,0-5.942,3.2A1.565,1.565,0,0,1,331.669,529.373Zm41.719-.6a1.567,1.567,0,0,1-.812-.226,44.332,44.332,0,0,0-6.01-3.047,1.575,1.575,0,0,1,1.2-2.912,47.548,47.548,0,0,1,6.437,3.264,1.574,1.574,0,0,1-.815,2.922Zm-24.439-5.837a1.575,1.575,0,0,1-.178-3.139c1.144-.13,2.3-.207,3.445-.226a37.532,37.532,0,0,1,3.837.13,1.574,1.574,0,0,1-.269,3.137,34.692,34.692,0,0,0-3.514-.12c-1.042.018-2.1.087-3.14.207A1.6,1.6,0,0,1,348.949,522.937Z" transform="translate(-278.758 -519.566)" fill="#a7a9ac"/>
        </g>
        <g id="Group_465" data-name="Group 465" transform="translate(271.402 98.182)">
          <path id="Path_690" data-name="Path 690" d="M450.069,601.922a1.575,1.575,0,0,1-1.485-1.05c0-.012-.429-1.214-1.245-3.242a2.673,2.673,0,0,1,5.344-.124c-.729,2.118-1.111,3.31-1.114,3.32a1.573,1.573,0,0,1-1.476,1.1Z" transform="translate(-447.225 -595.418)" fill="#a7a9ac"/>
        </g>
        <g id="Group_466" data-name="Group 466" transform="translate(277.991)">
          <path id="Path_691" data-name="Path 691" d="M457.182,560.387a1.574,1.574,0,0,1-1.469-2.141c.882-2.286,1.8-4.59,2.716-6.848a1.574,1.574,0,0,1,2.916,1.189c-.913,2.239-1.819,4.523-2.693,6.791A1.576,1.576,0,0,1,457.182,560.387Zm7.505-18.062a1.576,1.576,0,0,1-1.436-2.218c1.012-2.261,2.049-4.513,3.082-6.693a1.574,1.574,0,1,1,2.845,1.348c-1.023,2.159-2.05,4.39-3.052,6.631A1.576,1.576,0,0,1,464.688,542.325Zm8.528-17.6a1.574,1.574,0,0,1-1.391-2.309c1.17-2.221,2.359-4.4,3.533-6.479a1.574,1.574,0,1,1,2.74,1.549c-1.159,2.05-2.332,4.2-3.489,6.4A1.574,1.574,0,0,1,473.216,524.729ZM578.9,511.342a1.573,1.573,0,0,1-1.309-.7c-1.356-2.022-2.764-4.016-4.186-5.927a1.575,1.575,0,0,1,2.527-1.88c1.452,1.952,2.89,3.989,4.274,6.053a1.574,1.574,0,0,1-1.306,2.451Zm-95.855-3.511a1.574,1.574,0,0,1-1.32-2.431c1.375-2.123,2.775-4.183,4.16-6.124a1.574,1.574,0,0,1,2.563,1.83c-1.358,1.9-2.731,3.923-4.08,6.006A1.574,1.574,0,0,1,483.043,507.83Zm83.9-11.937a1.573,1.573,0,0,1-1.17-.52c-1.655-1.834-3.342-3.581-5.014-5.193a1.574,1.574,0,0,1,2.185-2.267c1.725,1.662,3.463,3.462,5.168,5.35a1.575,1.575,0,0,1-1.168,2.629ZM494.72,492.17a1.574,1.574,0,0,1-1.182-2.613c1.7-1.941,3.432-3.76,5.138-5.406a1.574,1.574,0,0,1,2.186,2.266c-1.644,1.586-3.312,3.341-4.958,5.216A1.572,1.572,0,0,1,494.72,492.17Zm57.753-9.367a1.572,1.572,0,0,1-.906-.288,59.19,59.19,0,0,0-6.051-3.765,1.574,1.574,0,1,1,1.491-2.772,62.35,62.35,0,0,1,6.377,3.964,1.574,1.574,0,0,1-.91,2.861Zm-43.185-3.554a1.575,1.575,0,0,1-.843-2.905,42.029,42.029,0,0,1,6.741-3.493,1.574,1.574,0,0,1,1.176,2.92,38.957,38.957,0,0,0-6.234,3.233A1.569,1.569,0,0,1,509.287,479.249Zm25.619-4.663a1.594,1.594,0,0,1-.352-.04,35.313,35.313,0,0,0-6.937-.88,1.575,1.575,0,0,1,.08-3.148,38.424,38.424,0,0,1,7.557.959,1.575,1.575,0,0,1-.348,3.11Z" transform="translate(-455.607 -470.517)" fill="#a7a9ac"/>
        </g>
        <g id="Group_467" data-name="Group 467" transform="translate(406.079 47.827)">
          <path id="Path_692" data-name="Path 692" d="M621.8,537.838a1.572,1.572,0,0,1-1.407-.871c-.006-.011-.578-1.152-1.641-3.054a1.574,1.574,0,0,1,2.748-1.536l.023.041.009-.022a1.574,1.574,0,0,1,2.959,1.076l-1.211,3.33a1.574,1.574,0,0,1-1.389,1.033C621.863,537.837,621.833,537.838,621.8,537.838Z" transform="translate(-618.554 -531.36)" fill="#a7a9ac"/>
        </g>
        <g id="Group_468" data-name="Group 468" transform="translate(411.666 35.939)">
          <path id="Path_693" data-name="Path 693" d="M627.235,523.844a1.575,1.575,0,0,1-1.479-2.113l1.621-4.458a1.574,1.574,0,1,1,2.959,1.076l-1.622,4.458A1.574,1.574,0,0,1,627.235,523.844Z" transform="translate(-625.66 -516.236)" fill="#a7a9ac"/>
        </g>
        <g id="Group_469" data-name="Group 469" transform="translate(415.989 25.179)">
          <path id="Path_694" data-name="Path 694" d="M632.735,509.027a1.575,1.575,0,0,1-1.479-2.113l1.211-3.329a1.574,1.574,0,1,1,2.958,1.076l-1.211,3.33A1.574,1.574,0,0,1,632.735,509.027Z" transform="translate(-631.16 -502.549)" fill="#a7a9ac"/>
        </g>
      </g>
      <g id="Group_534" data-name="Group 534" transform="translate(1156.339 129)">
        <path id="Path_695" data-name="Path 695" d="M611.609,377.313c.2-9.717,11.052-19.954,21.181-23.059s31.42-6.834,38.658-.222,6.722,9.4,6.722,9.4,32.1-110.716,32.309-115.058,3.609-22.225-6-19.224-23.354,14.894-26.763,19.34-14.667,28.74-14.667,28.74L653.028,299.67l-11.154,24.812-13.016,20.884-10.847,15.612Z" transform="translate(-607.788 -128.65)" fill="#891815"/>
        <path id="Path_696" data-name="Path 696" d="M712.295,194.57c-1.355,3.8-.384,5.87.488,8.343s.487,5.069-.347,5.941c0,0,5.349-1.475,5.231-5.08s-1.631-8.643-2.872-9.3A2.734,2.734,0,0,0,712.295,194.57Z" transform="translate(-629.183 -121.245)" fill="#a0481c"/>
        <g id="Group_532" data-name="Group 532">
          <g id="Group_476" data-name="Group 476" transform="translate(23.136 225.413)">
            <g id="Group_471" data-name="Group 471" transform="translate(0 38.585)">
              <path id="Path_697" data-name="Path 697" d="M653.015,437.234l-11.893.022s-4.078,9.08-3.17,9.757,1.979,3.558,1.979,3.558c-2.445,5.527-2.66,5.459-3.365,8.372-.911,3.761-.266,12.747,2.589,15.361,1.678,1.537,5.913,1.949,6.367-.281,1.5-7.358,3-12.15,4.776-15.706,1.874-3.742,11.305-12.348,11.305-12.348Z" transform="translate(-636.18 -437.234)" fill="#723216"/>
            </g>
            <g id="Group_473" data-name="Group 473" transform="translate(11.881 38.585)" opacity="0.2" style="mix-blend-mode: multiply;isolation: isolate">
              <g id="Group_472" data-name="Group 472">
                <path id="Path_698" data-name="Path 698" d="M656.187,454.7c3.445-3.976,8.649-8.726,8.649-8.726l-8.589-8.736-4.954.009a1.076,1.076,0,0,0,.544.2c1.757.051,2.171,2.791,2.637,4.444s1.685,12.429,1.685,12.429A3.5,3.5,0,0,0,656.187,454.7Z" transform="translate(-651.294 -437.234)" fill="#0b2025"/>
              </g>
            </g>
            <g id="Group_474" data-name="Group 474" transform="translate(14.21)">
              <path id="Path_699" data-name="Path 699" d="M654.257,426.266l9.9,14.057,29.521-23.815.11-28.36s-16.36,10.592-20.668,14.392C666.852,408.069,654.257,426.266,654.257,426.266Z" transform="translate(-654.257 -388.148)" fill="#314444"/>
            </g>
            <g id="Group_475" data-name="Group 475" transform="translate(0 38.602)">
              <path id="Path_700" data-name="Path 700" d="M640.081,471.165c-2.5-6.579-1.009-13.546,1.03-18.086,1.435-3.195,1.579-11.283,3.322-15.824l-3.31.006s-4.078,9.08-3.17,9.757,1.979,3.559,1.979,3.559c-2.445,5.527-2.66,5.459-3.365,8.372-.911,3.761-.266,12.747,2.589,15.361a5.85,5.85,0,0,0,4.9,1.116A10.018,10.018,0,0,1,640.081,471.165Z" transform="translate(-636.18 -437.255)" fill="#351e11"/>
            </g>
          </g>
          <g id="Group_484" data-name="Group 484" transform="translate(32.148 237.471)">
            <g id="Group_477" data-name="Group 477" transform="translate(0 45.485)">
              <path id="Path_701" data-name="Path 701" d="M660.6,461.352l-11.622,2.523s-2.077,9.735-1.047,10.2,2.684,3.063,2.684,3.063c-1.228,5.917-1.453,5.895-1.53,8.891-.1,3.87,2.421,12.518,5.763,14.473,1.964,1.149,6.19.662,6.166-1.615-.082-7.508.373-12.508,1.365-16.359,1.046-4.052,8.456-14.449,8.456-14.449Z" transform="translate(-647.645 -461.352)" fill="#723216"/>
            </g>
            <g id="Group_479" data-name="Group 479" transform="translate(10.031 45.485)" opacity="0.2" style="mix-blend-mode: multiply;isolation: isolate">
              <g id="Group_478" data-name="Group 478">
                <path id="Path_702" data-name="Path 702" d="M673.565,468.085l-10.234-6.733-2.925.635a3.342,3.342,0,0,1,1.064,1.517c.75,1.731,4.216,10.982,4.786,12.48a13.089,13.089,0,0,0,.95,1.98C669.747,473.443,673.565,468.085,673.565,468.085Z" transform="translate(-660.406 -461.352)" fill="#0b2025"/>
              </g>
            </g>
            <g id="Group_480" data-name="Group 480" transform="translate(10.291)">
              <path id="Path_703" data-name="Path 703" d="M660.737,449.069,672.993,462l24.23-30.765-5.858-27.748s-9.614,11.832-13.027,16.454C673.375,426.665,660.737,449.069,660.737,449.069Z" transform="translate(-660.737 -403.488)" fill="#4e6566"/>
            </g>
            <g id="Group_481" data-name="Group 481" transform="translate(0 47.307)">
              <path id="Path_704" data-name="Path 704" d="M655.093,497.735c-3.829-5.906-3.835-13.031-2.8-17.9.731-3.425-.83-11.363-.081-16.168l-3.235.7s-2.077,9.735-1.047,10.2,2.684,3.063,2.684,3.063c-1.228,5.917-1.453,5.895-1.53,8.891-.1,3.87,2.421,12.518,5.763,14.473a5.857,5.857,0,0,0,5.022.061A10.016,10.016,0,0,1,655.093,497.735Z" transform="translate(-647.645 -463.669)" fill="#351e11"/>
            </g>
            <g id="Group_483" data-name="Group 483" transform="translate(22.16 14.521)" opacity="0.2" style="mix-blend-mode: multiply;isolation: isolate">
              <g id="Group_482" data-name="Group 482">
                <path id="Path_705" data-name="Path 705" d="M692.513,445.27l6.62-8.4c-2.37-2.44-5.351-5.34-5.351-5.34l-10.751-9.564c-.557.725-1.054,1.381-1.462,1.933-1.433,1.942-3.508,5.193-5.732,8.833Z" transform="translate(-675.836 -421.961)" fill="#0b2025"/>
              </g>
            </g>
          </g>
          <g id="Group_485" data-name="Group 485" transform="translate(145.004)">
            <path id="Path_706" data-name="Path 706" d="M791.213,123.173,802.2,102.858l11.171-1.468,1.126,7.775-3.666,2.127.288,2.865-9.078,4.152L800.316,125Z" transform="translate(-791.213 -101.39)" fill="#ffa969"/>
          </g>
          <g id="Group_486" data-name="Group 486" transform="translate(102.723 15.285)">
            <path id="Path_707" data-name="Path 707" d="M755.116,217.1l15.877-41.258,19.982-48.581-9.646-6.425s-10.117,15.02-14.4,22.464c-2.435,4.228-10.691,18.4-12.887,21.531s-8.226,10.486-8.226,10.486l-8.387,18.4,2.687,22.678Z" transform="translate(-737.427 -120.835)" fill="#333a70"/>
          </g>
          <g id="Group_488" data-name="Group 488" transform="translate(115.914 19.652)" opacity="0.5">
            <g id="Group_487" data-name="Group 487">
              <path id="Path_708" data-name="Path 708" d="M773.032,169.112l-18.825,34.816s2.711,5.494,5.795,10.991l14.581-37.89,19.982-48.581-2.986-1.99-.5-.069Z" transform="translate(-754.207 -126.39)" fill="#0b2025"/>
            </g>
          </g>
          <g id="Group_489" data-name="Group 489" transform="translate(55.446 99.437)">
            <path id="Path_709" data-name="Path 709" d="M733.523,303.042a86.951,86.951,0,0,0,15.406-37.714c1.458-10.566-2.023-37.441-2.023-37.441l-9.774,2.715-38.814,7.986s-15,29.6-18.379,38.044c-4.726,11.8-2.1,20.143-.122,22.7a8.618,8.618,0,0,0,9.954,3.187c4.35-1.44,16.427-6.078,16.427-6.078Z" transform="translate(-677.283 -227.888)" fill="#333a70"/>
          </g>
          <g id="Group_490" data-name="Group 490" transform="translate(48.875 139.778)">
            <path id="Path_710" data-name="Path 710" d="M668.924,386.925,695.7,416.9s29.147-52.668,33.085-68.039c2.689-10.493,16.711-64.087,16.711-64.087l-39.313-5.562L689.77,317.787l-7.287,49.287Z" transform="translate(-668.924 -279.208)" fill="#333a70"/>
          </g>
          <g id="Group_492" data-name="Group 492" transform="translate(61.417 131.468)" opacity="0.4">
            <g id="Group_491" data-name="Group 491">
              <path id="Path_711" data-name="Path 711" d="M684.88,292.851s5.395-3.489,9.166-4.558c4.646-1.318,9.666-1.651,12.533-4.779,2.273-2.48,11.477-15.457,14.541-14.858,2.377.465,9.133,9.672,9.133,9.672s-6.623-2.427-9.105-3.452c-1.367-.564-5.9,6.548-8.012,12.111a7.125,7.125,0,0,1-6.207,4.569s-.946-.917-6.338-1.283C692.825,289.748,684.88,292.851,684.88,292.851Z" transform="translate(-684.88 -268.636)" fill="#0b2025"/>
            </g>
          </g>
          <g id="Group_493" data-name="Group 493" transform="translate(90.406 80.665)">
            <path id="Path_712" data-name="Path 712" d="M721.758,224.189l3.385-20.181,11.55,8.027,13.1,17.679Z" transform="translate(-721.758 -204.008)" fill="#fff"/>
          </g>
          <g id="Group_495" data-name="Group 495" transform="translate(55.446 101.48)" opacity="0.4">
            <g id="Group_494" data-name="Group 494">
              <path id="Path_713" data-name="Path 713" d="M740.828,238.871c-8.039-.592-.048-.465-.071-.7-.2-.732-.562-2.174-1.108-4.9a4.506,4.506,0,0,0-2.076-2.787l-7.538,2.093-31.716,6.564s-15,29.6-18.379,38.044c-4.726,11.8-2.1,20.143-.122,22.7a8.618,8.618,0,0,0,9.954,3.187C694.121,301.64,706.2,297,706.2,297l1.787.432a7.148,7.148,0,0,0,.992-1.57c.348-1.279-2.21-3.992-2.21-3.992s-16.511,6.131-21.433,6.714-6.748-8.525-6.207-12.867,4.415-10.157,7.126-16.747,4.92-6.631,7.437-13.182,4.26-9.924,10.615-14.424,19.108-4.232,25.195-2.025Z" transform="translate(-677.283 -230.488)" fill="#0b2025"/>
            </g>
          </g>
          <g id="Group_496" data-name="Group 496" transform="translate(0 89.439)">
            <path id="Path_714" data-name="Path 714" d="M683.054,240.533c7.323-6.708,16.062-6.877,20.851-6.6a35.916,35.916,0,0,1,30.009,18.982s-.114-7.149-.384-10.729-15.782-27.019-15.782-27.019l-6.02,2.819,5.474,8.688L698.3,216.515s-9.866-1.954-23.237,17.679c-10.457,15.354-23.031,50.754-31.047,67.514-7.862,16.442-25.883,45.368-32.2,56.108s-5.2,16.785-4.56,19.981a34.279,34.279,0,0,0,7.684,15.177s18.029-40.812,34.962-81.493C664.355,276.755,675.916,247.072,683.054,240.533Z" transform="translate(-606.748 -215.17)" fill="#e33b0f"/>
          </g>
          <g id="Group_497" data-name="Group 497" transform="translate(54.918 90.73)" opacity="0.4">
            <path id="Path_715" data-name="Path 715" d="M723.543,222.4l-10.3-5.536s-9.866-1.954-23.237,17.679c-4.264,6.26-8.879,15.853-13.394,26.156q.262-.533.541-1.125c11.735-24.928,26.616-36.175,28.244-35.09s5.506,5.347,6.6,6.579,4.831-3.831,9.677-4.8C721.678,226.262,722.485,224.618,723.543,222.4Z" transform="translate(-676.612 -216.812)" fill="#891815"/>
          </g>
          <g id="Group_498" data-name="Group 498" transform="translate(79.099 147.656)">
            <path id="Path_716" data-name="Path 716" d="M707.389,301.908c-.325-3.129,4.666-8.224,5.41-9.046,3.19-3.529,5.017-3.857,6.078-3.537s8.378,2.14,8.931,3.272-.8,2.335-.8,2.335.934,2.222.6,2.894a2.114,2.114,0,0,1-1.34.87,1.679,1.679,0,0,1-.262,1.376,2.825,2.825,0,0,1-2.865.826,2.033,2.033,0,0,1-1.049,2.168,7.743,7.743,0,0,1-3.206.605l-2.5,1.43-5.179,1.966S707.856,306.417,707.389,301.908Z" transform="translate(-707.374 -289.23)" fill="#ffa969"/>
          </g>
          <g id="Group_499" data-name="Group 499" transform="translate(157.232 3.799)">
            <path id="Path_717" data-name="Path 717" d="M806.77,113.65l1.914-6.85,5.73-.577.289,2.865-3.2,2.255.832,1.41Z" transform="translate(-806.77 -106.223)" fill="#ff8a54"/>
          </g>
          <g id="Group_500" data-name="Group 500" transform="translate(82.11 158.153)">
            <path id="Path_718" data-name="Path 718" d="M719.7,306.529c-.587.022-1.583-.865-.824-1.633a4.634,4.634,0,0,1,1.937-1.054.722.722,0,0,1-.413-.547.837.837,0,0,1,.088-.711s-2.443.246-2.412.483c.129.971-1.67,3.9-2.743,4.495s-4.132,1.886-4.132,1.886l.821.478,5.179-1.966A22.17,22.17,0,0,0,719.7,306.529Z" transform="translate(-711.204 -302.584)" fill="#ff8a54"/>
          </g>
          <g id="Group_502" data-name="Group 502" transform="translate(62.434 163.528)" opacity="0.4">
            <g id="Group_501" data-name="Group 501">
              <path id="Path_719" data-name="Path 719" d="M695.958,318.178s-2.041,2.472-3.3,8.236c-.98,4.469-6.48,47.124-6.48,47.124s13.52-39.94,16.73-48.509a63.082,63.082,0,0,1,8.945-15.607l-5.179,1.966Z" transform="translate(-686.173 -309.422)" fill="#0b2025"/>
            </g>
          </g>
          <g id="Group_503" data-name="Group 503" transform="translate(91.1 77.533)">
            <path id="Path_720" data-name="Path 720" d="M722.64,215.267l3.748-15.244,20.334,6.6s-3.438,1.972-3.888,3.382c-.25.79.689,2.835.3,3.563-1.968,3.646-1.208,4.669,3.523,11.516C749.358,228.992,722.64,215.267,722.64,215.267Z" transform="translate(-722.64 -200.023)" fill="#ff8a54"/>
          </g>
          <g id="Group_504" data-name="Group 504" transform="translate(94.218 77.693)">
            <path id="Path_721" data-name="Path 721" d="M726.922,201.343l-.315,1.282c1.077,3.023,4.108,10.5,16.214,13.594a13.794,13.794,0,0,1,1.159-2.61c.392-.729-.547-2.773-.3-3.563.45-1.41,3.888-3.382,3.888-3.382l-19.84-6.436A11.73,11.73,0,0,0,726.922,201.343Z" transform="translate(-726.607 -200.227)" fill="#c66340"/>
          </g>
          <g id="Group_505" data-name="Group 505" transform="translate(87.446 90.048)">
            <path id="Path_722" data-name="Path 722" d="M722.25,215.944l-4.258,5.294,2.861,9.642,8.035-1.611,1.062,2.971,22.1,3.636L740.7,221.15l4.772,7.559s-9.476-2.925-13.137-4.707C729.577,222.662,722.25,215.944,722.25,215.944Z" transform="translate(-717.992 -215.944)" fill="#fff"/>
          </g>
          <g id="Group_506" data-name="Group 506" transform="translate(89.82 48.475)">
            <path id="Path_723" data-name="Path 723" d="M739.132,163.057s5.624,6.407,6.73,9.12c.524,1.283.764,4.311,1.587,5.425,1.417,1.924,7.317,3.74,7.317,3.74a11.128,11.128,0,0,1-1.247,3.389,8.122,8.122,0,0,1-1.282,1.615,5.337,5.337,0,0,0,.706,1.316c.391.487,1.015.938.939,1.236-.328,1.322-5.109,2.514-5.109,2.514s3.107-.017,4.97.126c.82.064-.536,1.479-.055,3.649.324,1.469,1.869,2.382,1.961,3.883.057.913-1.317,3.065-2.4,3.693-4.333,2.512-15.232.794-19.727-1.418-5.606-2.76-6.007-4.953-6.007-4.953l-6.5-15.948,1.307-11.928Z" transform="translate(-721.012 -163.057)" fill="#ffa969"/>
          </g>
          <g id="Group_507" data-name="Group 507" transform="translate(75.275 44.818)">
            <path id="Path_724" data-name="Path 724" d="M719.358,183.115a22.732,22.732,0,0,0,2.96,1.971,14.146,14.146,0,0,0,2.2.4s-2.728-5.059-2.268-7.014a13.582,13.582,0,0,1,1.593-2.375s-3.478-6.971,3.432-10.784c5.4-2.982,4.772-9.494-5.422-5.8-3.744,1.358-10.474,3.5-12.551,6.9a31.176,31.176,0,0,1-6.792,8.232,60.774,60.774,0,0,1,3.088,7.5c1.421,3.964-.155,9.734,3.956,11.287a19.745,19.745,0,0,1,7.775,5.259A7.236,7.236,0,0,1,719,203.617a17.526,17.526,0,0,0,2.57-5.911C722.761,192.088,719.358,183.115,719.358,183.115Z" transform="translate(-702.509 -158.406)" fill="#a0481c"/>
          </g>
          <g id="Group_519" data-name="Group 519" transform="translate(105.144 57.567)">
            <g id="Group_509" data-name="Group 509">
              <g id="Group_508" data-name="Group 508">
                <path id="Path_725" data-name="Path 725" d="M740.63,184c-.49-1.226.616-2.9.871-4.061.556-2.522,2.824-4.139,4.516-5.3.476-.328,3.814,4.434,2.861,5.088-2.2,1.508-3.447,4.1-4.3,5.368C744.285,185.531,741.944,187.322,740.63,184Z" transform="translate(-740.507 -174.624)" fill="#ff8a54"/>
              </g>
            </g>
            <g id="Group_511" data-name="Group 511" transform="translate(4.659 6.017)">
              <g id="Group_510" data-name="Group 510">
                <path id="Path_726" data-name="Path 726" d="M749.116,182.282c-1.027-.1-2.125,1.971-2.68,4.4-.09.4,2.416.154,4.286-1.611.748-.707.268-1.486-.365-2.13A1.5,1.5,0,0,0,749.116,182.282Z" transform="translate(-746.434 -182.279)" fill="#fff"/>
              </g>
            </g>
            <g id="Group_513" data-name="Group 513" transform="translate(0.431 4.565)">
              <g id="Group_512" data-name="Group 512">
                <path id="Path_727" data-name="Path 727" d="M748.2,181.492a1.869,1.869,0,0,1,1.687-.018c-.049-.868-2.027-1.225-3.3-.953-2.842.616-5.772,6.149-5.513,7.294.143.631,2.684.51,3.217.6C744.364,186.864,745.01,182.778,748.2,181.492Z" transform="translate(-741.055 -180.432)" fill="#ffa969"/>
              </g>
            </g>
            <g id="Group_515" data-name="Group 515" transform="translate(6.726 5.871)">
              <g id="Group_514" data-name="Group 514">
                <path id="Path_728" data-name="Path 728" d="M751.339,182.9a1.471,1.471,0,0,1,.062,2.013c-.509.38-1.364.1-1.91-.635a1.477,1.477,0,0,1-.066-2.014C749.938,181.881,750.793,182.167,751.339,182.9Z" transform="translate(-749.063 -182.094)" fill="#58595b"/>
              </g>
            </g>
            <g id="Group_517" data-name="Group 517" transform="translate(7.489 6.715)">
              <g id="Group_516" data-name="Group 516">
                <path id="Path_729" data-name="Path 729" d="M751.025,183.518a.64.64,0,0,1,.026.876c-.22.164-.594.04-.83-.277s-.252-.711-.028-.876S750.789,183.2,751.025,183.518Z" transform="translate(-750.034 -183.167)" fill="#211f1f"/>
              </g>
            </g>
            <g id="Group_518" data-name="Group 518" transform="translate(3.891 5.107)">
              <path id="Path_730" data-name="Path 730" d="M749.573,181.748a1.839,1.839,0,0,0-.157-.627c-2.947.48-3.956,5.738-3.959,5.788a.311.311,0,0,0,.621.031C746.086,186.762,747.106,182.207,749.573,181.748Z" transform="translate(-745.457 -181.121)" fill="#c96335"/>
            </g>
          </g>
          <g id="Group_520" data-name="Group 520" transform="translate(104.867 56.975)">
            <path id="Path_731" data-name="Path 731" d="M740.851,184.138c-.026.272-.641-.185-.67-.458-.472-4.536,5.275-10.224,6.271-9.785.517.228.745,1.062.763,1.628C747.249,176.641,741.241,180.079,740.851,184.138Z" transform="translate(-740.154 -173.871)" fill="#a0481c"/>
          </g>
          <g id="Group_523" data-name="Group 523" transform="translate(86.716 67.32)">
            <g id="Group_521" data-name="Group 521">
              <path id="Path_732" data-name="Path 732" d="M720.534,197.555c3.169,2.489,7.082,2.794,8.74.682s-3.609-2.353-4.184-6.34c-1.052-7.3-5.629-4.784-7.288-2.673S717.368,195.065,720.534,197.555Z" transform="translate(-717.063 -187.031)" fill="#ffa969"/>
            </g>
            <g id="Group_522" data-name="Group 522" transform="translate(4.335 3.495)">
              <path id="Path_733" data-name="Path 733" d="M723.1,195.153c.8,1.424,2.21,2.15,3.162,1.619s-.224-1.747-1.019-3.171-.914-2.519-1.861-1.989S722.308,193.727,723.1,195.153Z" transform="translate(-722.578 -191.477)" fill="#ff8a54"/>
            </g>
          </g>
          <g id="Group_531" data-name="Group 531" transform="translate(57.586 26.447)">
            <g id="Group_524" data-name="Group 524" transform="translate(9.501 9.869)">
              <rect id="Rectangle_160" data-name="Rectangle 160" width="40.746" height="23.497" transform="matrix(0.711, -0.703, 0.703, 0.711, 0, 28.634)" fill="#0b2025"/>
            </g>
            <g id="Group_525" data-name="Group 525" transform="translate(0 0)">
              <rect id="Rectangle_161" data-name="Rectangle 161" width="67.303" height="4.444" transform="translate(0 47.302) rotate(-44.654)" fill="#4e6566"/>
            </g>
            <g id="Group_530" data-name="Group 530" transform="translate(10.345 23.253)">
              <g id="Group_526" data-name="Group 526" transform="translate(1.927 18.475)">
                <path id="Path_734" data-name="Path 734" d="M695.618,190.509a2.392,2.392,0,1,0,2.392-2.39A2.394,2.394,0,0,0,695.618,190.509Z" transform="translate(-695.618 -188.119)" fill="#fbc41c"/>
              </g>
              <g id="Group_527" data-name="Group 527" transform="translate(0 26.017)">
                <path id="Path_735" data-name="Path 735" d="M693.166,211.609l0-9.588a4.31,4.31,0,1,1,8.619,0l0,9.587Z" transform="translate(-693.166 -197.713)" fill="#fbc41c"/>
              </g>
              <g id="Group_528" data-name="Group 528" transform="translate(2.755 7.629)">
                <path id="Path_736" data-name="Path 736" d="M697.1,194.593h2.183l-.492-20.273-2.118,1.286Z" transform="translate(-696.671 -174.322)" fill="#fbc41c"/>
              </g>
              <g id="Group_529" data-name="Group 529" transform="translate(2.75 0)">
                <rect id="Rectangle_162" data-name="Rectangle 162" width="12.684" height="1.557" transform="matrix(0.711, -0.703, 0.703, 0.711, 0, 8.914)" fill="#fbc41c"/>
              </g>
            </g>
          </g>
        </g>
        <path id="Path_737" data-name="Path 737" d="M729.042,302.38c-1.225.845-2.106-1.052-2.4-2.02s-.284-1.992-.884-2.034-2.579.02-2.579.02a21.683,21.683,0,0,1,2.534.554c.542.223.7,3.32.806,3.942A3.041,3.041,0,0,0,729.042,302.38Z" transform="translate(-631.656 -143.516)" fill="#ff8a54"/>
        <g id="Group_533" data-name="Group 533" transform="translate(91.781 151.917)">
          <path id="Path_738" data-name="Path 738" d="M731.405,301.273c.009.046.016.072.024.111A1.075,1.075,0,0,0,731.405,301.273Z" transform="translate(-725.197 -296.067)" fill="#ff8a54"/>
          <path id="Path_739" data-name="Path 739" d="M730.893,299.192c-.441.441-1.032-.764-1.4-1.686-.461-1.167-.34-2.2-2.24-2.5a32.772,32.772,0,0,0-3.75-.357s4.22.565,4.729,1.345a14.331,14.331,0,0,1,1.479,3.861,2.31,2.31,0,0,0,1.234-.711C730.931,299.161,730.912,299.172,730.893,299.192Z" transform="translate(-723.507 -294.65)" fill="#ff8a54"/>
        </g>
        <path id="Path_740" data-name="Path 740" d="M731.605,294.31a.539.539,0,0,0-.078.111c-.238.484-.807-.006-.969-.31a2.063,2.063,0,0,0-1.725-1.233c-1.124-.077-3.974-.38-3.974-.38s2.688.671,3.889.8,1.563,1.266,2,2.335A3.335,3.335,0,0,0,731.605,294.31Z" transform="translate(-632.015 -142.273)" fill="#ff8a54"/>
        <path id="Path_741" data-name="Path 741" d="M731.925,153.727c-2.159,3.171-8.828,12.995-10.68,16.057-2.221,3.67.934,8.682,4.708,12.763a1.886,1.886,0,0,0,.317.262l17.4-17.191Z" transform="translate(-631.084 -112.586)" fill="#4e6566" opacity="0.4"/>
      </g>
      <g id="Group_552" data-name="Group 552" transform="translate(850.091 588.187)">
        <g id="Group_551" data-name="Group 551">
          <g id="Group_535" data-name="Group 535">
            <path id="Path_742" data-name="Path 742" d="M226.259,685.542h73.574v3.412h-29.7a5.7,5.7,0,0,0-5.69,5.689v1.865a5.7,5.7,0,0,0,5.69,5.687h29.7v3.415H226.259a9.1,9.1,0,0,1-9.1-9.1v-1.865A9.1,9.1,0,0,1,226.259,685.542Z" transform="translate(-217.156 -685.542)" fill="#0891c1"/>
          </g>
          <g id="Group_536" data-name="Group 536" transform="translate(47.289 3.413)">
            <path id="Path_743" data-name="Path 743" d="M283,703.125a5.7,5.7,0,0,1-5.69-5.687v-1.865a5.7,5.7,0,0,1,5.69-5.689h25.684s-2.409,1.4-2.409,6.218c0,5.621,2.409,7.024,2.409,7.024Z" transform="translate(-277.314 -689.884)" fill="#c9e2dc"/>
          </g>
          <g id="Group_537" data-name="Group 537" transform="translate(11.079 46.757)">
            <path id="Path_744" data-name="Path 744" d="M330.938,761.476a5.693,5.693,0,0,0,5.69-5.687v-5.076a5.694,5.694,0,0,0-5.69-5.687H231.25a13.335,13.335,0,0,1,2.41,7.824c0,5.62-2.41,8.627-2.41,8.627Z" transform="translate(-231.25 -745.024)" fill="#e2e0c5"/>
          </g>
          <g id="Group_538" data-name="Group 538" transform="translate(76.98 46.757)">
            <path id="Path_745" data-name="Path 745" d="M327.334,745.024H315.086s1.206,2.53,1.206,8.051a23.7,23.7,0,0,1-1.206,8.4h12.248Z" transform="translate(-315.086 -745.024)" fill="#353c4f"/>
          </g>
          <g id="Group_540" data-name="Group 540" transform="translate(76.281 46.059)">
            <g id="Group_539" data-name="Group 539">
              <path id="Path_746" data-name="Path 746" d="M314.9,761.986a.7.7,0,0,1-.645-.971,23.476,23.476,0,0,0,1.151-8.13c0-5.255-1.126-7.728-1.138-7.752a.7.7,0,0,1,1.265-.6c.052.109,1.273,2.737,1.273,8.351a24.251,24.251,0,0,1-1.259,8.671A.7.7,0,0,1,314.9,761.986Z" transform="translate(-314.196 -744.135)" fill="#af6127"/>
            </g>
          </g>
          <g id="Group_541" data-name="Group 541" transform="translate(7.89 43.344)">
            <path id="Path_747" data-name="Path 747" d="M321.688,740.683H227.193V744.1h68.26a5.694,5.694,0,0,1,5.69,5.688v5.076a5.693,5.693,0,0,1-5.69,5.688h-68.26v3.411h94.495a9.1,9.1,0,0,0,9.1-9.1v-5.076A9.1,9.1,0,0,0,321.688,740.683Z" transform="translate(-227.193 -740.682)" fill="#4e6566"/>
          </g>
          <g id="Group_542" data-name="Group 542" transform="translate(76.704 43.345)">
            <path id="Path_748" data-name="Path 748" d="M348.8,740.683H314.735a9.1,9.1,0,0,1,9.1,9.1v5.076a9.1,9.1,0,0,1-9.1,9.1H348.8a9.1,9.1,0,0,0,9.1-9.1v-5.076A9.1,9.1,0,0,0,348.8,740.683Z" transform="translate(-314.735 -740.683)" fill="#678484"/>
          </g>
          <g id="Group_546" data-name="Group 546" transform="translate(16.857 20.069)">
            <g id="Group_543" data-name="Group 543">
              <path id="Path_749" data-name="Path 749" d="M312.176,711.073H238.6v3.413h73.576a5.7,5.7,0,0,1,5.686,5.689v5.074a5.694,5.694,0,0,1-5.686,5.688H238.6v3.412h73.576a9.1,9.1,0,0,0,9.1-9.1v-5.074A9.1,9.1,0,0,0,312.176,711.073Z" transform="translate(-238.6 -711.072)" fill="#e44b1a"/>
            </g>
            <g id="Group_544" data-name="Group 544" transform="translate(4.013 3.413)">
              <path id="Path_750" data-name="Path 750" d="M313.268,731.865c3.132,0,4.286-2.551,4.286-5.688V721.1c0-3.138-1.153-5.689-4.286-5.689H243.7a13.331,13.331,0,0,1,2.409,7.822c0,5.618-2.409,8.628-2.409,8.628Z" transform="translate(-243.705 -715.414)" fill="#e4f4f0"/>
            </g>
            <g id="Group_545" data-name="Group 545" transform="translate(34.416 10.015)" opacity="0.3" style="mix-blend-mode: multiply;isolation: isolate">
              <path id="Path_751" data-name="Path 751" d="M298.871,725.213H283.082a.7.7,0,1,1,0-1.4h15.788a.7.7,0,0,1,0,1.4Z" transform="translate(-282.382 -723.813)" fill="#353c4f"/>
            </g>
          </g>
          <g id="Group_548" data-name="Group 548" transform="translate(53.372 30.784)" opacity="0.3" style="mix-blend-mode: multiply;isolation: isolate">
            <g id="Group_547" data-name="Group 547">
              <path id="Path_752" data-name="Path 752" d="M300.716,737.335,298.042,724.7H285.053l2.673,12.632Z" transform="translate(-285.053 -724.703)" fill="#0b2025"/>
            </g>
          </g>
          <g id="Group_550" data-name="Group 550" transform="translate(55.18 43.357)" opacity="0.3" style="mix-blend-mode: multiply;isolation: isolate">
            <g id="Group_549" data-name="Group 549">
              <path id="Path_753" data-name="Path 753" d="M299.007,750.226l-5.826-1.918-5.827,1.918V740.7h11.654Z" transform="translate(-287.353 -740.699)" fill="#0b2025"/>
            </g>
          </g>
        </g>
        <path id="Path_754" data-name="Path 754" d="M226.259,685.542h73.574v3.412h-29.7a5.7,5.7,0,0,0-5.69,5.689v1.865a5.7,5.7,0,0,0,5.69,5.687h29.7v3.415H226.259a9.1,9.1,0,0,1-9.1-9.1v-1.865A9.1,9.1,0,0,1,226.259,685.542Z" transform="translate(-217.156 -685.542)" fill="#18aed6"/>
        <path id="Path_755" data-name="Path 755" d="M281.69,702.2a5.7,5.7,0,0,1-5.69-5.687v-1.865a5.7,5.7,0,0,1,5.69-5.689h29.7v-3.412H280.277a9.1,9.1,0,0,0-9.1,9.1v1.865a9.1,9.1,0,0,0,9.1,9.1h31.112V702.2Z" transform="translate(-228.712 -685.542)" fill="#353c4f" opacity="0.4" style="mix-blend-mode: multiply;isolation: isolate"/>
        <path id="Path_756" data-name="Path 756" d="M298.042,745.5l-6.494-2.138-6.5,2.137V724.7h12.989Z" transform="translate(-231.681 -693.919)" fill="#fbc41c"/>
        <rect id="Rectangle_163" data-name="Rectangle 163" width="12.989" height="12.516" transform="translate(53.372 30.784)" fill="#fff" opacity="0.3" style="mix-blend-mode: overlay;isolation: isolate"/>
        <path id="Path_757" data-name="Path 757" d="M333.174,715.488s1.062,2.262,1.062,7.939-1.062,8.4-1.062,8.4a5.693,5.693,0,0,0,4.919-5.63v-5.074A5.693,5.693,0,0,0,333.174,715.488Z" transform="translate(-241.975 -691.948)" fill="#353c4f"/>
        <path id="Path_758" data-name="Path 758" d="M282.51,689.916a5.694,5.694,0,0,0-5.2,5.664v1.865a5.7,5.7,0,0,0,5.2,5.662,21.623,21.623,0,0,1-.895-6.691A19.569,19.569,0,0,1,282.51,689.916Z" transform="translate(-230.025 -686.478)" fill="#353c4f"/>
        <path id="Path_759" data-name="Path 759" d="M332.349,715.767c.009.022,1,2.248,1,7.645a25.25,25.25,0,0,1-1.015,8.141.7.7,0,0,0-.043.309,4.454,4.454,0,0,0,1.5-.257,28.978,28.978,0,0,0,.959-8.192,25.207,25.207,0,0,0-.935-7.726,4.454,4.454,0,0,0-1.52-.267A.691.691,0,0,0,332.349,715.767Z" transform="translate(-241.785 -691.933)" fill="#8dccdb"/>
      </g>
      <g id="Group_568" data-name="Group 568" transform="translate(1125.018 479.699)">
        <g id="Group_554" data-name="Group 554" transform="translate(1.213 151.543)">
          <path id="Path_760" data-name="Path 760" d="M663.957,761.135a5.7,5.7,0,0,0,5.7-5.7v-5.083a5.7,5.7,0,0,0-5.7-5.7H572.508a13.356,13.356,0,0,1,2.413,7.835c0,5.629-2.413,8.64-2.413,8.64Z" transform="translate(-569.314 -741.243)" fill="#e2e0c5"/>
          <path id="Path_761" data-name="Path 761" d="M668.73,744.661H656.465s1.207,2.534,1.207,8.062a23.74,23.74,0,0,1-1.207,8.413H668.73Z" transform="translate(-587.274 -741.243)" fill="#353c4f"/>
          <g id="Group_553" data-name="Group 553" transform="translate(68.489 2.718)">
            <path id="Path_762" data-name="Path 762" d="M656.273,761.646a.7.7,0,0,1-.646-.972,23.523,23.523,0,0,0,1.152-8.142c0-5.262-1.128-7.739-1.14-7.763a.7.7,0,0,1,1.267-.6c.052.109,1.274,2.742,1.274,8.364a24.256,24.256,0,0,1-1.261,8.683A.7.7,0,0,1,656.273,761.646Z" transform="translate(-655.573 -743.77)" fill="#7f4632"/>
          </g>
          <path id="Path_763" data-name="Path 763" d="M654.7,740.313h-86.26v3.417H636.8a5.7,5.7,0,0,1,5.7,5.7v5.083a5.7,5.7,0,0,1-5.7,5.7H568.445v3.416H654.7a9.113,9.113,0,0,0,9.116-9.112v-5.083A9.115,9.115,0,0,0,654.7,740.313Z" transform="translate(-568.445 -740.313)" fill="#c9320e"/>
          <path id="Path_764" data-name="Path 764" d="M681.842,740.313h-25.73a9.116,9.116,0,0,1,9.117,9.114v5.083a9.113,9.113,0,0,1-9.117,9.111h25.73a9.114,9.114,0,0,0,9.116-9.112v-5.083A9.116,9.116,0,0,0,681.842,740.313Z" transform="translate(-587.199 -740.313)" fill="#ef4511"/>
        </g>
        <g id="Group_556" data-name="Group 556" transform="translate(11.717 40.077)">
          <g id="Group_555" data-name="Group 555">
            <path id="Path_765" data-name="Path 765" d="M656.6,622.172l-74.789,0V618.7l74.789,0a5.788,5.788,0,0,0,5.779-5.782v-5.158a5.788,5.788,0,0,0-5.779-5.782l-74.789,0v-3.469l74.789,0a9.249,9.249,0,0,1,9.247,9.251v5.157A9.248,9.248,0,0,1,656.6,622.172Z" transform="translate(-581.808 -598.513)" fill="#ef4511"/>
            <path id="Path_766" data-name="Path 766" d="M657.706,602.926c3.184,0,4.356,2.593,4.356,5.782v5.158c0,3.189-1.172,5.782-4.356,5.782l-70.711,0a13.553,13.553,0,0,0,2.449-7.952c0-5.711-2.449-8.77-2.449-8.77Z" transform="translate(-582.918 -599.457)" fill="#daeae5"/>
          </g>
          <path id="Path_767" data-name="Path 767" d="M677.94,619.6s1.08-2.3,1.08-8.07S677.94,603,677.94,603a5.786,5.786,0,0,1,5,5.723v5.158A5.786,5.786,0,0,1,677.94,619.6Z" transform="translate(-602.373 -599.473)" fill="#353c4f"/>
          <path id="Path_768" data-name="Path 768" d="M677.1,619.291c.01-.022,1.014-2.285,1.014-7.771a25.669,25.669,0,0,0-1.031-8.275.713.713,0,0,1-.044-.314,4.54,4.54,0,0,1,1.524.261,29.514,29.514,0,0,1,.974,8.328,25.577,25.577,0,0,1-.951,7.853,4.5,4.5,0,0,1-1.545.272A.7.7,0,0,1,677.1,619.291Z" transform="translate(-602.18 -599.458)" fill="#af6127"/>
        </g>
        <g id="Group_557" data-name="Group 557" transform="translate(14.976)">
          <path id="Path_769" data-name="Path 769" d="M616.744,565.111a5.7,5.7,0,0,0,5.69-5.687V557.56a5.7,5.7,0,0,0-5.69-5.69H591.06s2.409,1.4,2.409,6.217c0,5.621-2.409,7.024-2.409,7.024Z" transform="translate(-587.045 -548.458)" fill="#e2e0c5"/>
          <path id="Path_770" data-name="Path 770" d="M651.145,547.529H585.953v3.412h29.7a5.7,5.7,0,0,1,5.69,5.69V558.5a5.7,5.7,0,0,1-5.69,5.687h-29.7V567.6h65.192a9.1,9.1,0,0,0,9.1-9.1V556.63A9.1,9.1,0,0,0,651.145,547.529Z" transform="translate(-585.953 -547.529)" fill="#f45f14"/>
          <path id="Path_771" data-name="Path 771" d="M615.652,564.183a5.7,5.7,0,0,0,5.69-5.687v-1.865a5.7,5.7,0,0,0-5.69-5.69h-29.7V547.53h31.112a9.1,9.1,0,0,1,9.1,9.1V558.5a9.1,9.1,0,0,1-9.1,9.1H585.953v-3.415Z" transform="translate(-585.953 -547.529)" fill="#d3380f"/>
          <path id="Path_772" data-name="Path 772" d="M624.362,551.9a5.7,5.7,0,0,1,5.2,5.664v1.865a5.694,5.694,0,0,1-5.2,5.662,21.63,21.63,0,0,0,.894-6.691A19.581,19.581,0,0,0,624.362,551.9Z" transform="translate(-594.17 -548.464)" fill="#353c4f"/>
        </g>
        <g id="Group_559" data-name="Group 559" transform="translate(14.625 63.741)">
          <path id="Path_773" data-name="Path 773" d="M654.777,649.456a5.706,5.706,0,0,0,5.7-5.7v-5.087a5.707,5.707,0,0,0-5.7-5.7h-65.2a13.369,13.369,0,0,1,2.415,7.841c0,5.633-2.415,8.646-2.415,8.646Z" transform="translate(-586.377 -629.548)" fill="#e2e0c5"/>
          <path id="Path_774" data-name="Path 774" d="M661.554,632.968H649.28s1.208,2.536,1.208,8.069a23.758,23.758,0,0,1-1.208,8.419h12.275Z" transform="translate(-599.15 -629.548)" fill="#353c4f"/>
          <g id="Group_558" data-name="Group 558" transform="translate(49.429 2.72)">
            <path id="Path_775" data-name="Path 775" d="M649.088,649.966a.7.7,0,0,1-.646-.972,23.535,23.535,0,0,0,1.153-8.148c0-5.267-1.129-7.745-1.141-7.769a.7.7,0,0,1,1.268-.6c.052.11,1.276,2.744,1.276,8.371a24.268,24.268,0,0,1-1.262,8.689A.7.7,0,0,1,649.088,649.966Z" transform="translate(-648.388 -632.077)" fill="#353c4f"/>
          </g>
          <path id="Path_776" data-name="Path 776" d="M653.907,628.618h-68.4v3.42h49.3a5.707,5.707,0,0,1,5.7,5.7v5.087a5.706,5.706,0,0,1-5.7,5.7h-49.3v3.419h68.4a9.12,9.12,0,0,0,9.123-9.119v-5.087A9.122,9.122,0,0,0,653.907,628.618Z" transform="translate(-585.507 -628.617)" fill="#0b5384"/>
          <path id="Path_777" data-name="Path 777" d="M675.856,628.618H648.928a9.122,9.122,0,0,1,9.123,9.121v5.087a9.12,9.12,0,0,1-9.123,9.119h26.929a9.12,9.12,0,0,0,9.123-9.119v-5.087A9.122,9.122,0,0,0,675.856,628.618Z" transform="translate(-599.074 -628.617)" fill="#117ec9"/>
          <path id="Path_778" data-name="Path 778" d="M655.977,654.054a9.106,9.106,0,0,1-7.05,3.331h26.929a9.105,9.105,0,0,0,7.05-3.331Z" transform="translate(-599.074 -634.059)" fill="#005aa6" opacity="0.3"/>
          <path id="Path_779" data-name="Path 779" d="M675.857,628.618H648.928a9.118,9.118,0,0,1,8.288,5.326h26.929A9.117,9.117,0,0,0,675.857,628.618Z" transform="translate(-599.074 -628.617)" fill="#18aed6"/>
        </g>
        <g id="Group_560" data-name="Group 560" transform="translate(13.846 131.47)">
          <path id="Path_780" data-name="Path 780" d="M629.037,719.122a5.7,5.7,0,0,0-5.69,5.687v1.865a5.7,5.7,0,0,0,5.69,5.689H663.1s-2.409-1.4-2.409-6.218c0-5.621,2.409-7.024,2.409-7.024Z" transform="translate(-592.823 -715.707)" fill="#c9e2dc"/>
          <path id="Path_781" data-name="Path 781" d="M593.619,734.847l65.192,0v-3.412H620.73a5.7,5.7,0,0,1-5.69-5.689V723.88a5.7,5.7,0,0,1,5.69-5.687h38.081v-3.415H593.619a9.1,9.1,0,0,0-9.1,9.1v1.865A9.1,9.1,0,0,0,593.619,734.847Z" transform="translate(-584.516 -714.778)" fill="#0c8c8c"/>
          <path id="Path_782" data-name="Path 782" d="M627.723,718.193a5.7,5.7,0,0,0-5.69,5.687v1.865a5.7,5.7,0,0,0,5.69,5.689H665.8v3.412H626.31a9.1,9.1,0,0,1-9.1-9.1V723.88a9.1,9.1,0,0,1,9.1-9.1H665.8v3.415Z" transform="translate(-591.509 -714.778)" fill="#01a9b4"/>
          <path id="Path_783" data-name="Path 783" d="M628.543,732.345a5.694,5.694,0,0,1-5.2-5.664v-1.865a5.7,5.7,0,0,1,5.2-5.662,21.62,21.62,0,0,0-.895,6.691A19.566,19.566,0,0,0,628.543,732.345Z" transform="translate(-592.823 -715.714)" fill="#353c4f"/>
        </g>
        <g id="Group_562" data-name="Group 562" transform="translate(6.029 87.005)">
          <path id="Path_784" data-name="Path 784" d="M583.689,662.155a5.173,5.173,0,0,0-5.171,5.168v4.612a5.173,5.173,0,0,0,5.171,5.168h81.643a12.12,12.12,0,0,1-2.19-7.11,13.158,13.158,0,0,1,2.19-7.839Z" transform="translate(-575.416 -659.055)" fill="#daeae5"/>
          <path id="Path_785" data-name="Path 785" d="M620.659,677.1h11.13s-1.1-2.3-1.1-7.316a21.536,21.536,0,0,1,1.1-7.634h-11.13Z" transform="translate(-584.431 -659.055)" fill="#353c4f"/>
          <g id="Group_561" data-name="Group 561" transform="translate(45.626 2.464)">
            <path id="Path_786" data-name="Path 786" d="M634.347,661.346a.636.636,0,0,1,.586.881,21.363,21.363,0,0,0-1.045,7.388c0,4.775,1.023,7.022,1.034,7.045a.636.636,0,0,1-1.149.544c-.047-.1-1.157-2.487-1.157-7.589a22.024,22.024,0,0,1,1.144-7.879A.638.638,0,0,1,634.347,661.346Z" transform="translate(-632.615 -661.346)" fill="#8dccdb"/>
          </g>
          <path id="Path_787" data-name="Path 787" d="M593.509,679.361h76.158v-3.1h-44.7a5.174,5.174,0,0,1-5.171-5.169V666.48a5.173,5.173,0,0,1,5.171-5.168h44.7v-3.1H593.509a8.269,8.269,0,0,0-8.273,8.268v4.612A8.271,8.271,0,0,0,593.509,679.361Z" transform="translate(-576.853 -658.212)" fill="#af6127"/>
          <path id="Path_788" data-name="Path 788" d="M582.845,679.361h39.336a8.271,8.271,0,0,1-8.272-8.27V666.48a8.269,8.269,0,0,1,8.273-8.268H582.845a8.269,8.269,0,0,0-8.273,8.268v4.612A8.271,8.271,0,0,0,582.845,679.361Z" transform="translate(-574.572 -658.212)" fill="#894229"/>
        </g>
        <g id="Group_564" data-name="Group 564" transform="translate(20.344 107.868)">
          <g id="Group_563" data-name="Group 563">
            <path id="Path_789" data-name="Path 789" d="M646.194,705.355a6.674,6.674,0,0,0,6.667-6.664v-2.185a6.675,6.675,0,0,0-6.667-6.666H598.765s2.822,1.644,2.822,7.285c0,6.586-2.822,8.229-2.822,8.229Z" transform="translate(-594.062 -685.841)" fill="#e2e0c5"/>
            <path id="Path_790" data-name="Path 790" d="M662.038,684.753H592.782v4h52.132a6.675,6.675,0,0,1,6.667,6.666V697.6a6.675,6.675,0,0,1-6.667,6.664H592.782v4h69.256A10.665,10.665,0,0,0,672.7,697.6v-2.185A10.667,10.667,0,0,0,662.038,684.753Z" transform="translate(-592.782 -684.753)" fill="#fbc41c"/>
            <path id="Path_791" data-name="Path 791" d="M644.914,704.267a6.675,6.675,0,0,0,6.667-6.664v-2.185a6.675,6.675,0,0,0-6.667-6.666H592.782v-4H646.57a10.666,10.666,0,0,1,10.665,10.664V697.6a10.666,10.666,0,0,1-10.665,10.665H592.782v-4Z" transform="translate(-592.782 -684.753)" fill="#ed9d11"/>
            <path id="Path_792" data-name="Path 792" d="M659.837,689.878a6.672,6.672,0,0,1,6.088,6.636V698.7a6.673,6.673,0,0,1-6.088,6.634,25.337,25.337,0,0,0,1.048-7.839A22.93,22.93,0,0,0,659.837,689.878Z" transform="translate(-607.127 -685.849)" fill="#353c4f"/>
          </g>
        </g>
        <g id="Group_566" data-name="Group 566" transform="translate(0 20.038)">
          <path id="Path_793" data-name="Path 793" d="M587.985,576.835a5.006,5.006,0,0,0-5,5V586.3a5.007,5.007,0,0,0,5,5h59.143a11.723,11.723,0,0,1-2.118-6.878,12.732,12.732,0,0,1,2.118-7.585Z" transform="translate(-570.342 -573.836)" fill="#e4f4f0"/>
          <path id="Path_794" data-name="Path 794" d="M601.173,591.3h10.768s-1.06-2.225-1.06-7.078a20.842,20.842,0,0,1,1.06-7.385H601.173Z" transform="translate(-574.233 -573.836)" fill="#353c4f"/>
          <g id="Group_565" data-name="Group 565" transform="translate(36.033 2.384)">
            <path id="Path_795" data-name="Path 795" d="M614.416,576.053a.614.614,0,0,1,.568.853,20.645,20.645,0,0,0-1.012,7.148c0,4.62.99,6.794,1,6.815a.615.615,0,0,1-1.112.527c-.046-.1-1.119-2.406-1.119-7.342a21.3,21.3,0,0,1,1.108-7.623A.614.614,0,0,1,614.416,576.053Z" transform="translate(-612.741 -576.053)" fill="#8dccdb"/>
          </g>
          <path id="Path_796" data-name="Path 796" d="M574.906,593.482h70.329v-3H605.34a5.006,5.006,0,0,1-5-5V581.02a5,5,0,0,1,5-5h39.894v-3H574.906a8,8,0,0,0-8,8v4.463A8,8,0,0,0,574.906,593.482Z" transform="translate(-566.902 -573.02)" fill="#01a9b4"/>
          <path id="Path_797" data-name="Path 797" d="M574.906,593.482h29.947a8,8,0,0,1-8-8V581.02a8,8,0,0,1,8-8H574.906a8,8,0,0,0-8,8v4.463A8,8,0,0,0,574.906,593.482Z" transform="translate(-566.902 -573.02)" fill="#353c4f" opacity="0.4" style="mix-blend-mode: multiply;isolation: isolate"/>
        </g>
        <g id="Group_567" data-name="Group 567" transform="translate(24.286 16.261)">
          <path id="Path_798" data-name="Path 798" d="M618.185,568.715h0Z" transform="translate(-597.797 -568.322)" fill="#353c4f" opacity="0.2" style="mix-blend-mode: multiply;isolation: isolate"/>
          <path id="Path_799" data-name="Path 799" d="M625.735,568.382c.167-.049.329-.1.489-.167C626.064,568.278,625.9,568.334,625.735,568.382Z" transform="translate(-603.774 -568.215)" fill="#353c4f" opacity="0.2" style="mix-blend-mode: multiply;isolation: isolate"/>
          <path id="Path_800" data-name="Path 800" d="M632.926,568.215a9.083,9.083,0,0,1-7.392,3.808h34.078a9.084,9.084,0,0,0,7.394-3.807Z" transform="translate(-603.731 -568.215)" fill="#353c4f" opacity="0.2" style="mix-blend-mode: multiply;isolation: isolate"/>
          <path id="Path_801" data-name="Path 801" d="M625.1,568.549c.168-.032.333-.073.494-.12C625.431,568.476,625.265,568.516,625.1,568.549Z" transform="translate(-603.637 -568.261)" fill="#353c4f" opacity="0.2" style="mix-blend-mode: multiply;isolation: isolate"/>
          <path id="Path_802" data-name="Path 802" d="M624.435,568.664c.138-.013.273-.037.407-.06C624.708,568.627,624.573,568.65,624.435,568.664Z" transform="translate(-603.496 -568.298)" fill="#353c4f" opacity="0.2" style="mix-blend-mode: multiply;isolation: isolate"/>
        </g>
        <path id="Path_803" data-name="Path 803" d="M681.842,740.313h-25.73a9.109,9.109,0,0,1,8.184,5.117h25.73A9.11,9.11,0,0,0,681.842,740.313Z" transform="translate(-585.986 -588.77)" fill="#f96921"/>
        <path id="Path_804" data-name="Path 804" d="M575.882,662.487h39.336a8.268,8.268,0,0,1,7.244-4.276H583.125A8.268,8.268,0,0,0,575.882,662.487Z" transform="translate(-568.823 -571.207)" fill="#9e5b2e"/>
      </g>
      <g id="Group_585" data-name="Group 585" transform="translate(989.782 543.693)">
        <g id="Group_569" data-name="Group 569" transform="translate(19.696)">
          <path id="Path_805" data-name="Path 805" d="M450.71,646.521a5.7,5.7,0,0,0,5.69-5.686V638.97a5.7,5.7,0,0,0-5.69-5.69H425.026s2.409,1.4,2.409,6.218c0,5.621-2.409,7.024-2.409,7.024Z" transform="translate(-421.011 -629.868)" fill="#e2e0c5"/>
          <path id="Path_806" data-name="Path 806" d="M476.728,628.939H419.919v3.412h29.7a5.7,5.7,0,0,1,5.69,5.69v1.865a5.7,5.7,0,0,1-5.69,5.686h-29.7v3.414h56.809a9.1,9.1,0,0,0,9.1-9.1V638.04A9.1,9.1,0,0,0,476.728,628.939Z" transform="translate(-419.919 -628.939)" fill="#fbc41c"/>
          <path id="Path_807" data-name="Path 807" d="M454.093,648.367a5.663,5.663,0,0,1-3.706,1.382H423.516v3.414H477.5a9.1,9.1,0,0,0,8.02-4.8Z" transform="translate(-420.689 -633.095)" fill="#ed9d11"/>
          <path id="Path_808" data-name="Path 808" d="M449.618,645.593a5.7,5.7,0,0,0,5.69-5.686v-1.865a5.7,5.7,0,0,0-5.69-5.69h-29.7V628.94h31.112a9.1,9.1,0,0,1,9.1,9.1v1.865a9.1,9.1,0,0,1-9.1,9.1H419.919v-3.414Z" transform="translate(-419.919 -628.939)" fill="#ea8913"/>
          <path id="Path_809" data-name="Path 809" d="M458.328,633.312a5.7,5.7,0,0,1,5.2,5.664v1.865a5.7,5.7,0,0,1-5.2,5.662,21.639,21.639,0,0,0,.894-6.691A19.586,19.586,0,0,0,458.328,633.312Z" transform="translate(-428.135 -629.874)" fill="#353c4f"/>
        </g>
        <g id="Group_570" data-name="Group 570" transform="translate(8.382 87.601)">
          <path id="Path_810" data-name="Path 810" d="M467.321,760.981a6.675,6.675,0,0,0,6.667-6.664v-2.185a6.675,6.675,0,0,0-6.667-6.666H411.51s2.822,1.644,2.822,7.285c0,6.586-2.822,8.229-2.822,8.229Z" transform="translate(-406.806 -741.468)" fill="#e2e0c5"/>
          <path id="Path_811" data-name="Path 811" d="M483.163,740.38H405.526v4H466.04a6.675,6.675,0,0,1,6.667,6.666v2.185a6.675,6.675,0,0,1-6.667,6.664H405.526v4h77.638a10.665,10.665,0,0,0,10.665-10.664v-2.185A10.666,10.666,0,0,0,483.163,740.38Z" transform="translate(-405.526 -740.38)" fill="#18aed6"/>
          <path id="Path_812" data-name="Path 812" d="M466.04,759.893a6.675,6.675,0,0,0,6.667-6.664v-2.185a6.675,6.675,0,0,0-6.667-6.666H405.526v-4H467.7a10.666,10.666,0,0,1,10.665,10.664v2.185A10.666,10.666,0,0,1,467.7,763.894H405.526v-4Z" transform="translate(-405.526 -740.38)" fill="#353c4f" opacity="0.4" style="mix-blend-mode: multiply;isolation: isolate"/>
          <path id="Path_813" data-name="Path 813" d="M483.244,745.5a6.672,6.672,0,0,1,6.089,6.636v2.185a6.673,6.673,0,0,1-6.089,6.635,25.339,25.339,0,0,0,1.048-7.84A22.931,22.931,0,0,0,483.244,745.5Z" transform="translate(-422.152 -741.476)" fill="#353c4f"/>
        </g>
        <g id="Group_571" data-name="Group 571" transform="translate(0 43.526)">
          <path id="Path_814" data-name="Path 814" d="M405.512,684.31H491.59V688.3H431.165a6.666,6.666,0,0,0-6.657,6.656v2.181a6.665,6.665,0,0,0,6.657,6.654H491.59v3.995l-86.078,0a10.65,10.65,0,0,1-10.649-10.649v-2.181A10.65,10.65,0,0,1,405.512,684.31Z" transform="translate(-394.863 -684.31)" fill="#894229"/>
          <path id="Path_815" data-name="Path 815" d="M439.232,704.881a6.665,6.665,0,0,1-6.657-6.654v-2.181a6.666,6.666,0,0,1,6.657-6.656H494.96s-2.818,1.642-2.818,7.274c0,6.576,2.818,8.218,2.818,8.218Z" transform="translate(-402.93 -685.396)" fill="#e4f4f0"/>
          <path id="Path_816" data-name="Path 816" d="M437.7,703.794a6.666,6.666,0,0,1-6.657-6.654v-2.181A6.666,6.666,0,0,1,437.7,688.3H498.12v-3.992H436.042a10.651,10.651,0,0,0-10.65,10.648v2.182a10.65,10.65,0,0,0,10.65,10.649H498.12V703.8Z" transform="translate(-401.394 -684.31)" fill="#af6127"/>
          <path id="Path_817" data-name="Path 817" d="M438.655,689.426a6.664,6.664,0,0,0-6.08,6.627v2.181a6.664,6.664,0,0,0,6.08,6.625,25.3,25.3,0,0,1-1.046-7.828A22.9,22.9,0,0,1,438.655,689.426Z" transform="translate(-402.93 -685.404)" fill="#353c4f"/>
        </g>
        <g id="Group_582" data-name="Group 582" transform="translate(6.658 19.897)">
          <g id="Group_575" data-name="Group 575">
            <g id="Group_572" data-name="Group 572">
              <path id="Path_818" data-name="Path 818" d="M412.58,654.252h74.789v3.469l-74.789,0A5.788,5.788,0,0,0,406.8,663.5v5.158a5.788,5.788,0,0,0,5.779,5.781l74.789,0v3.469l-74.789,0a9.249,9.249,0,0,1-9.247-9.25V663.5A9.248,9.248,0,0,1,412.58,654.252Z" transform="translate(-403.333 -654.251)" fill="#93b224"/>
            </g>
            <g id="Group_573" data-name="Group 573" transform="translate(4.891 3.469)">
              <path id="Path_819" data-name="Path 819" d="M413.911,675.387c-3.184,0-4.356-2.592-4.356-5.781v-5.158c0-3.189,1.172-5.782,4.356-5.782l70.711,0a13.552,13.552,0,0,0-2.449,7.952c0,5.71,2.449,8.769,2.449,8.769Z" transform="translate(-409.555 -658.664)" fill="#e4f4f0"/>
            </g>
            <g id="Group_574" data-name="Group 574" transform="translate(31.581 10.181)" opacity="0.3" style="mix-blend-mode: multiply;isolation: isolate">
              <path id="Path_820" data-name="Path 820" d="M444.219,668.625a.711.711,0,1,1,0-1.423h16.049a.711.711,0,1,1,0,1.423Z" transform="translate(-443.508 -667.202)" fill="#353c4f"/>
            </g>
          </g>
          <g id="Group_577" data-name="Group 577" transform="translate(30.998 10.892)" opacity="0.3" style="mix-blend-mode: multiply;isolation: isolate">
            <g id="Group_576" data-name="Group 576">
              <path id="Path_821" data-name="Path 821" d="M442.767,680.948l2.717-12.841h13.2l-2.717,12.841Z" transform="translate(-442.767 -668.107)" fill="#0b2025"/>
            </g>
          </g>
          <g id="Group_578" data-name="Group 578" transform="translate(33.716 10.892)">
            <path id="Path_822" data-name="Path 822" d="M446.224,689.251l6.6-2.173,6.6,2.173V668.107h-13.2Z" transform="translate(-446.224 -668.107)" fill="#d3380f"/>
          </g>
          <g id="Group_579" data-name="Group 579" transform="translate(33.716 10.892)">
            <rect id="Rectangle_164" data-name="Rectangle 164" width="13.203" height="12.722" fill="#f45f14"/>
          </g>
          <g id="Group_580" data-name="Group 580" transform="translate(3.468 3.529)">
            <path id="Path_823" data-name="Path 823" d="M412.746,658.74s-1.08,2.3-1.08,8.071,1.08,8.534,1.08,8.534a5.786,5.786,0,0,1-5-5.722v-5.158A5.787,5.787,0,0,1,412.746,658.74Z" transform="translate(-407.745 -658.74)" fill="#353c4f"/>
          </g>
          <g id="Group_581" data-name="Group 581" transform="translate(6.678 3.474)">
            <path id="Path_824" data-name="Path 824" d="M414.265,659.025c-.01.022-1.014,2.285-1.014,7.771a25.66,25.66,0,0,0,1.031,8.274.717.717,0,0,1,.044.314,4.544,4.544,0,0,1-1.524-.261,29.516,29.516,0,0,1-.974-8.328,25.589,25.589,0,0,1,.951-7.854,4.508,4.508,0,0,1,1.545-.271A.7.7,0,0,1,414.265,659.025Z" transform="translate(-411.828 -658.671)" fill="#af6127"/>
          </g>
        </g>
        <g id="Group_584" data-name="Group 584" transform="translate(5.234 67.093)">
          <path id="Path_825" data-name="Path 825" d="M492.731,732.572a5.005,5.005,0,0,0,5-5v-4.463a5.006,5.006,0,0,0-5-5H405.088a11.726,11.726,0,0,1,2.118,6.878,12.73,12.73,0,0,1-2.118,7.585Z" transform="translate(-402.284 -715.107)" fill="#e2e0c5"/>
          <path id="Path_826" data-name="Path 826" d="M489.563,718.109H478.795s1.06,2.225,1.06,7.079a20.843,20.843,0,0,1-1.06,7.385h10.768Z" transform="translate(-418.052 -715.107)" fill="#353c4f"/>
          <g id="Group_583" data-name="Group 583" transform="translate(60.128 2.386)">
            <path id="Path_827" data-name="Path 827" d="M478.627,733.02a.608.608,0,0,1-.237-.048.614.614,0,0,1-.329-.8,20.657,20.657,0,0,0,1.012-7.148c0-4.62-.99-6.794-1-6.816a.615.615,0,0,1,1.112-.527c.046.1,1.119,2.406,1.119,7.343a21.319,21.319,0,0,1-1.107,7.623A.617.617,0,0,1,478.627,733.02Z" transform="translate(-478.012 -717.327)" fill="#9e5b2e"/>
          </g>
          <path id="Path_828" data-name="Path 828" d="M483.586,714.292H401.521v3h60.012a5.007,5.007,0,0,1,5,5v4.463a5.005,5.005,0,0,1-5,5H401.521v3h82.065a8,8,0,0,0,8-8v-4.463A8,8,0,0,0,483.586,714.292Z" transform="translate(-401.521 -714.291)" fill="#ea8913"/>
          <path id="Path_829" data-name="Path 829" d="M508.433,714.292H478.485a8,8,0,0,1,8,8v4.463a8,8,0,0,1-8,8h29.948a8,8,0,0,0,8-8v-4.463A8,8,0,0,0,508.433,714.292Z" transform="translate(-417.985 -714.291)" fill="#fbc41c"/>
        </g>
        <path id="Path_830" data-name="Path 830" d="M485.477,735.094a8,8,0,0,1-6.991,4.11h29.947a8,8,0,0,0,6.992-4.111Z" transform="translate(-412.752 -651.648)" fill="#ed9d11"/>
      </g>
    </g>
  </g>
</svg>
