<svg xmlns="http://www.w3.org/2000/svg" xmlns:xlink="http://www.w3.org/1999/xlink" width="583" height="768" viewBox="0 0 583 768">
  <defs>
    <linearGradient id="linear-gradient" x1="0.5" x2="0.5" y2="1" gradientUnits="objectBoundingBox">
      <stop offset="0" stop-color="#6e00a4"/>
      <stop offset="1" stop-color="#520052"/>
    </linearGradient>
    <linearGradient id="linear-gradient-2" y1="0.5" x2="1" y2="0.5" gradientUnits="objectBoundingBox">
      <stop offset="0" stop-color="#b3bae0" stop-opacity="0.102"/>
      <stop offset="0.625" stop-color="#b3bae0" stop-opacity="0.239"/>
      <stop offset="1" stop-color="#b3bae0" stop-opacity="0.302"/>
    </linearGradient>
    <clipPath id="clip-path">
      <path id="Path_515" data-name="Path 515" d="M536.438,291.407c-7.615,0-12.922-3.427-12.922-6.5s-3.44-48.026,19.579-46.475c7.6.511,6.265,43.4,6.265,46.475S544.054,291.407,536.438,291.407Z" transform="translate(-523.334 -238.391)" fill="none"/>
    </clipPath>
  </defs>
  <g id="Group_632" data-name="Group 632" transform="translate(-783)">
    <rect id="BG" width="583" height="768" transform="translate(783)" fill="url(#linear-gradient)"/>
    <g id="Image_for_Student_Registration" data-name="Image for Student Registration" transform="translate(500.164 52.728)">
      <g id="Group_257" data-name="Group 257" transform="translate(342.187 304.18)">
        <path id="Path_359" data-name="Path 359" d="M803.824,345.368,590.742,266.945,359.408,347.993c-15.634,7.3-14.7,29.839,1.485,35.82l209.881,85.31Z" transform="translate(-339.077 -218.533)" fill="#191d23" opacity="0.206"/>
        <path id="Path_360" data-name="Path 360" d="M350.24,337.565l217.123,76.677L775.8,309.157,597.082,240.2Z" transform="translate(-338.023 -232.36)" fill="#f45a16"/>
        <path id="Path_361" data-name="Path 361" d="M571.957,435.878l-216.568-82.8c-10.865-4.155-14.038-17.08-13.025-27.515.519-5.341,1.7-10.619,4.847-15.068A21.56,21.56,0,0,1,359.2,301.9a18.492,18.492,0,0,1,12.1,1.071l191.53,85.037Z" transform="translate(-342.186 -200.753)" fill="#027396"/>
        <path id="Path_362" data-name="Path 362" d="M350.24,372.6,567.364,458.35,775.8,349.34V336.92l-179.406-76.6Z" transform="translate(-338.023 -221.958)" fill="#027396"/>
        <path id="Path_363" data-name="Path 363" d="M492.839,439.626,702.082,330.959V284.2L492.839,389.322Z" transform="translate(-264.305 -209.61)" fill="#e3e3e3"/>
        <path id="Path_364" data-name="Path 364" d="M350.24,336.135l216.3,76.728L775.8,307.727l.074-5.4L597.082,238.767Z" transform="translate(-338.023 -233.099)" fill="#027396"/>
        <path id="Path_365" data-name="Path 365" d="M343.3,351.4s1.15-3.369,6.678-8.8c11.04-10.843,24.939-6.5,24.939-6.5l195.24,72.98L779.386,304.2,599.879,235.031,362.5,327.919s-7.712,4.645-12.227,10.147C343.968,345.756,343.3,351.4,343.3,351.4Z" transform="translate(-341.609 -235.031)" fill="#0081b4"/>
        <path id="Path_366" data-name="Path 366" d="M568,428.86,360.971,346.451a21.463,21.463,0,0,1-13.525-19.94h0a21.462,21.462,0,0,1,29.026-20.085L568,378.556Z" transform="translate(-339.468 -198.844)" fill="#fff"/>
        <g id="Group_256" data-name="Group 256" transform="translate(15.47 111.316)">
          <line id="Line_5" data-name="Line 5" x2="189.209" y2="73.573" transform="translate(15.969)" fill="none" stroke="#c4c4c4" stroke-miterlimit="10" stroke-width="0.78"/>
          <line id="Line_6" data-name="Line 6" x2="199.658" y2="77.319" transform="translate(5.52 4.929)" fill="none" stroke="#c4c4c4" stroke-miterlimit="10" stroke-width="0.78"/>
          <line id="Line_7" data-name="Line 7" x2="203.601" y2="78.896" transform="translate(1.577 12.026)" fill="none" stroke="#c4c4c4" stroke-miterlimit="10" stroke-width="0.78"/>
          <line id="Line_8" data-name="Line 8" x2="205.178" y2="80.276" transform="translate(0 19.321)" fill="none" stroke="#c4c4c4" stroke-miterlimit="10" stroke-width="0.78"/>
          <line id="Line_9" data-name="Line 9" x2="202.418" y2="78.896" transform="translate(2.76 29.375)" fill="none" stroke="#c4c4c4" stroke-miterlimit="10" stroke-width="0.78"/>
        </g>
        <path id="Path_367" data-name="Path 367" d="M407.15,252.582c0,.118-.012.237-.012.343v-.343Z" transform="translate(-308.609 -225.958)" fill="#191d23" opacity="0.548"/>
        <path id="Path_368" data-name="Path 368" d="M407.13,253.151a3.349,3.349,0,0,1,.012-.343v.757C407.13,253.424,407.13,253.293,407.13,253.151Z" transform="translate(-308.613 -225.841)" fill="#191d23" opacity="0.548"/>
        <line id="Line_10" data-name="Line 10" y1="96.111" x2="196.571" transform="translate(232.925 88.939)" fill="none" stroke="#c4c4c4" stroke-miterlimit="10" stroke-width="0.78"/>
        <line id="Line_11" data-name="Line 11" y1="96.111" x2="196.571" transform="translate(233.517 96.43)" fill="none" stroke="#c4c4c4" stroke-miterlimit="10" stroke-width="0.78"/>
        <line id="Line_12" data-name="Line 12" y1="96.111" x2="196.571" transform="translate(234.108 103.922)" fill="none" stroke="#c4c4c4" stroke-miterlimit="10" stroke-width="0.78"/>
        <line id="Line_13" data-name="Line 13" y1="96.111" x2="196.571" transform="translate(234.7 111.414)" fill="none" stroke="#c4c4c4" stroke-miterlimit="10" stroke-width="0.78"/>
        <line id="Line_14" data-name="Line 14" y1="96.111" x2="196.571" transform="translate(235.291 118.905)" fill="none" stroke="#c4c4c4" stroke-miterlimit="10" stroke-width="0.78"/>
      </g>
      <g id="Group_259" data-name="Group 259" transform="translate(531.524 179.742)">
        <g id="Group_258" data-name="Group 258" transform="translate(0)">
          <path id="Path_369" data-name="Path 369" d="M467,159.074v43.193a2.772,2.772,0,0,0,1.526,2.6c.042.012.085.045.129.059l14.117,5.72,29.161,11.8a1.452,1.452,0,0,0,1.526-.343l5.716-4.733a2.125,2.125,0,0,0,.818-1.611V174.01a3.621,3.621,0,0,0-2.236-3.525L474.908,153.1a1.851,1.851,0,0,0-1.805.36l-5.437,4.458a1.177,1.177,0,0,0-.193.149A1.374,1.374,0,0,0,467,159.074Z" transform="translate(-467 -153)" fill="#ffd05a"/>
          <path id="Path_370" data-name="Path 370" d="M467,157.46v43.193a2.772,2.772,0,0,0,1.526,2.6c.042.012.085.046.129.059l14.117,5.72,29.161,11.8a1.452,1.452,0,0,0,1.526-.343,1.8,1.8,0,0,0,.645-1.318v-42.1a3.475,3.475,0,0,0-2.084-3.321L468.634,156.19a1.054,1.054,0,0,0-.968.118,1.175,1.175,0,0,0-.193.149A1.374,1.374,0,0,0,467,157.46Z" transform="translate(-467 -151.386)" fill="#ffdc79"/>
        </g>
        <path id="Path_371" data-name="Path 371" d="M484.811,169.827l-2.891,4.93a.8.8,0,0,1-.783.413l-6.265-1.1c-.6-.1-1.139.683-.784,1.142l4.992,6.467a.585.585,0,0,1,.1.464l-1.288,7.093a.526.526,0,0,0,.642.645l6.7-1.376a.551.551,0,0,1,.473.106l6.118,5.176c.443.376,1.227-.174,1.127-.792l-1.076-6.617a.821.821,0,0,1,.382-.783l4.738-3.1c.472-.309.529-.969.1-1.168l-7.532-3.507a.489.489,0,0,1-.243-.253l-3.351-7.862C485.776,169.255,485.105,169.323,484.811,169.827Z" transform="translate(-463.394 -144.519)" fill="#fff"/>
      </g>
      <g id="Group_262" data-name="Group 262" transform="translate(688.759 227.354)">
        <g id="Group_260" data-name="Group 260">
          <path id="Path_372" data-name="Path 372" d="M570.651,190.548v43.813A2.814,2.814,0,0,0,572.2,237c.044.012.088.047.13.059l14.322,5.8,29.579,11.975a1.474,1.474,0,0,0,1.549-.349l5.8-4.8a2.155,2.155,0,0,0,.828-1.635V205.7a3.672,3.672,0,0,0-2.266-3.575l-43.466-17.629a1.875,1.875,0,0,0-1.831.364l-5.514,4.522a1.154,1.154,0,0,0-.2.15A1.4,1.4,0,0,0,570.651,190.548Z" transform="translate(-570.651 -184.387)" fill="#e83d83"/>
          <path id="Path_373" data-name="Path 373" d="M570.651,188.911v43.813a2.814,2.814,0,0,0,1.547,2.638c.044.012.088.047.13.059l14.322,5.8L616.23,253.2a1.474,1.474,0,0,0,1.549-.349,1.825,1.825,0,0,0,.654-1.336v-42.7a3.525,3.525,0,0,0-2.115-3.368l-44.01-17.82a1.065,1.065,0,0,0-.98.12,1.153,1.153,0,0,0-.2.15A1.4,1.4,0,0,0,570.651,188.911Z" transform="translate(-570.651 -182.75)" fill="#fe5c99"/>
        </g>
        <g id="Group_261" data-name="Group 261" transform="translate(9.235 23.08)">
          <path id="Path_374" data-name="Path 374" d="M581.968,203.892c0,3.466,2.809,7.369,6.276,8.72s6.274-.364,6.274-3.83-2.809-7.369-6.274-8.72S581.968,200.426,581.968,203.892Z" transform="translate(-574.036 -199.601)" fill="#fff"/>
          <path id="Path_375" data-name="Path 375" d="M576.739,218.178l28.4,11.066c-.032-7.829-6.353-16.614-14.2-19.671-3.909-1.523-7.466-1.321-10.041.25S576.739,214.27,576.739,218.178Z" transform="translate(-576.739 -194.984)" fill="#fff"/>
        </g>
      </g>
      <path id="Path_376" data-name="Path 376" d="M492.589,101.9v20.365a1.308,1.308,0,0,0,.721,1.226c.02.006.039.021.061.027l6.656,2.7,13.748,5.566a.681.681,0,0,0,.719-.162.844.844,0,0,0,.3-.62V111.152a1.637,1.637,0,0,0-.983-1.566L493.36,101.3a.5.5,0,0,0-.457.055.622.622,0,0,0-.091.071A.647.647,0,0,0,492.589,101.9Z" transform="translate(77.753)" fill="#c9d4fe" opacity="0.16"/>
      <path id="Path_377" data-name="Path 377" d="M503.681,114.948v20.365a1.308,1.308,0,0,0,.721,1.226c.02.006.039.021.061.027l6.656,2.7,13.748,5.566a.684.684,0,0,0,.719-.162.845.845,0,0,0,.3-.622V124.2a1.642,1.642,0,0,0-.983-1.566l-20.456-8.283a.5.5,0,0,0-.457.056.609.609,0,0,0-.091.07A.653.653,0,0,0,503.681,114.948Z" transform="translate(83.487 6.744)" fill="#c9d4fe" opacity="0.16"/>
      <path id="Path_378" data-name="Path 378" d="M453.6,121.742v30.464a1.954,1.954,0,0,0,1.076,1.834c.03.009.061.033.091.042l9.957,4.035,20.569,8.325a1.024,1.024,0,0,0,1.075-.243,1.266,1.266,0,0,0,.455-.93V135.578a2.451,2.451,0,0,0-1.47-2.341l-30.6-12.391a.736.736,0,0,0-.681.083.746.746,0,0,0-.137.1A.97.97,0,0,0,453.6,121.742Z" transform="translate(57.597 10.094)" fill="#fff" opacity="0.1"/>
      <path id="Path_379" data-name="Path 379" d="M412.836,145.883V180.6a2.229,2.229,0,0,0,1.226,2.09c.035.011.07.038.1.047l11.348,4.6,23.437,9.489a1.166,1.166,0,0,0,1.226-.278,1.443,1.443,0,0,0,.519-1.059V161.65a2.792,2.792,0,0,0-1.676-2.668l-34.871-14.12a.848.848,0,0,0-.777.1.977.977,0,0,0-.156.12A1.105,1.105,0,0,0,412.836,145.883Z" transform="translate(36.523 22.506)" fill="#fff" opacity="0.1"/>
      <path id="Path_380" data-name="Path 380" d="M575,253.132v27a1.731,1.731,0,0,0,.954,1.625c.026.008.053.029.08.036l8.824,3.576,18.228,7.379a.907.907,0,0,0,.953-.214,1.123,1.123,0,0,0,.4-.824V265.395a2.172,2.172,0,0,0-1.3-2.075l-27.119-10.981a.662.662,0,0,0-.6.074.735.735,0,0,0-.121.093A.864.864,0,0,0,575,253.132Z" transform="translate(120.357 78.075)" fill="#fff" opacity="0.2"/>
      <path id="Path_381" data-name="Path 381" d="M397.336,151.47v34.716a2.231,2.231,0,0,0,1.227,2.09c.035.009.068.036.1.047l11.347,4.6,23.437,9.487a1.167,1.167,0,0,0,1.227-.276,1.447,1.447,0,0,0,.517-1.059V167.239a2.8,2.8,0,0,0-1.675-2.67L398.65,150.451a.847.847,0,0,0-.778.1.876.876,0,0,0-.155.118A1.109,1.109,0,0,0,397.336,151.47Z" transform="translate(28.51 25.395)" fill="#fff" opacity="0.2"/>
      <path id="Path_382" data-name="Path 382" d="M604.7,236.181v33.8a2.167,2.167,0,0,0,1.194,2.034c.033.011.067.036.1.046l11.05,4.478,22.82,9.238a1.136,1.136,0,0,0,1.194-.27,1.4,1.4,0,0,0,.505-1.031V251.535a2.72,2.72,0,0,0-1.631-2.6l-33.954-13.747a.821.821,0,0,0-.757.093.906.906,0,0,0-.15.115A1.081,1.081,0,0,0,604.7,236.181Z" transform="translate(135.71 69.203)" fill="#fff" opacity="0.1"/>
      <path id="Path_383" data-name="Path 383" d="M359.876,243.814v29.115a1.868,1.868,0,0,0,1.028,1.752c.029.009.058.032.086.039l9.516,3.856,19.657,7.958a.982.982,0,0,0,1.028-.232,1.214,1.214,0,0,0,.434-.889V257.038a2.343,2.343,0,0,0-1.4-2.238l-29.246-11.841a.705.705,0,0,0-.651.08.7.7,0,0,0-.13.1A.928.928,0,0,0,359.876,243.814Z" transform="translate(9.145 73.223)" fill="#fff" opacity="0.1"/>
      <g id="Group_263" data-name="Group 263" transform="translate(613.44 234.353)">
        <path id="Path_384" data-name="Path 384" d="M521,193.094v29.114a1.868,1.868,0,0,0,1.028,1.754c.029.008.058.032.086.039l9.517,3.856,19.655,7.956a.978.978,0,0,0,1.029-.231l3.853-3.19a1.434,1.434,0,0,0,.551-1.086V203.162a2.441,2.441,0,0,0-1.506-2.376l-28.883-11.716a1.245,1.245,0,0,0-1.217.243l-3.665,3.005a.74.74,0,0,0-.13.1A.934.934,0,0,0,521,193.094Z" transform="translate(-521 -189)" fill="#779a0a"/>
        <path id="Path_385" data-name="Path 385" d="M521,192.006V221.12a1.868,1.868,0,0,0,1.028,1.754c.029.008.058.032.086.039l9.517,3.856,19.655,7.956a.978.978,0,0,0,1.029-.231,1.217,1.217,0,0,0,.434-.889V205.23a2.341,2.341,0,0,0-1.4-2.238L522.1,191.151a.708.708,0,0,0-.652.08.738.738,0,0,0-.13.1A.934.934,0,0,0,521,192.006Z" transform="translate(-521 -187.913)" fill="#c3d600"/>
        <path id="Path_386" data-name="Path 386" d="M524.964,204.445l4.5,7.871,15.114-9.5" transform="translate(-518.951 -181.859)" fill="none" stroke="#fff" stroke-linecap="round" stroke-miterlimit="10" stroke-width="2.558"/>
      </g>
      <g id="Group_264" data-name="Group 264" transform="translate(394.089 245.387)">
        <path id="Path_387" data-name="Path 387" d="M376.4,200.368v29.115a1.868,1.868,0,0,0,1.029,1.752c.029.009.058.032.086.039l9.517,3.856,19.655,7.956a.978.978,0,0,0,1.029-.231l3.853-3.19a1.432,1.432,0,0,0,.551-1.086V210.436a2.444,2.444,0,0,0-1.506-2.377l-28.883-11.714a1.244,1.244,0,0,0-1.217.243l-3.665,3.005a.683.683,0,0,0-.13.1A.928.928,0,0,0,376.4,200.368Z" transform="translate(-376.401 -196.274)" fill="#00e0c1"/>
        <path id="Path_388" data-name="Path 388" d="M376.4,199.28V228.4a1.868,1.868,0,0,0,1.029,1.752c.029.009.058.032.086.039l9.517,3.856L406.689,242a.978.978,0,0,0,1.029-.231,1.217,1.217,0,0,0,.434-.889V212.5a2.341,2.341,0,0,0-1.4-2.238L377.5,198.425a.708.708,0,0,0-.652.08.683.683,0,0,0-.13.1A.928.928,0,0,0,376.4,199.28Z" transform="translate(-376.401 -195.187)" fill="#02f5d0"/>
        <path id="Path_389" data-name="Path 389" d="M390.343,218.241a2.044,2.044,0,0,0,3.224.7,3.379,3.379,0,0,0,.372-4.047,2.044,2.044,0,0,0-3.225-.7A3.377,3.377,0,0,0,390.343,218.241Z" transform="translate(-369.451 -187.284)" fill="#fff"/>
        <path id="Path_390" data-name="Path 390" d="M385.272,216.149a2.044,2.044,0,0,0,3.221.719,3.377,3.377,0,0,0,.391-4.044,2.044,2.044,0,0,0-3.22-.719A3.379,3.379,0,0,0,385.272,216.149Z" transform="translate(-372.067 -188.361)" fill="#fff"/>
        <path id="Path_391" data-name="Path 391" d="M380.2,214.06a2.045,2.045,0,0,0,3.219.731,3.381,3.381,0,0,0,.406-4.043,2.045,2.045,0,0,0-3.219-.731A3.381,3.381,0,0,0,380.2,214.06Z" transform="translate(-374.683 -189.438)" fill="#fff"/>
      </g>
      <g id="Group_269" data-name="Group 269" transform="translate(618.765 467.274)">
        <path id="Path_392" data-name="Path 392" d="M625.255,350.931l12.536-3.615a2.1,2.1,0,0,1,2.344,3.166l-4.04,6.209a9.051,9.051,0,0,1-3.287,3.028L538.325,410.69a11.746,11.746,0,0,1-12.348-.742h0a3.467,3.467,0,0,1,.354-5.883l97.136-52.4A9.168,9.168,0,0,1,625.255,350.931Z" transform="translate(-524.51 -340.123)" fill="#191d23" opacity="0.206"/>
        <g id="Group_268" data-name="Group 268" transform="translate(0.505)">
          <g id="Group_266" data-name="Group 266" transform="translate(102.223)">
            <path id="Path_393" data-name="Path 393" d="M592.229,344.64l1,2.16,3.8,8.216L608.4,343.263a.379.379,0,0,0-.079-.6.3.3,0,0,0-.293-.111Z" transform="translate(-592.229 -342.544)" fill="#ffdc79"/>
            <g id="Group_265" data-name="Group 265">
              <path id="Path_394" data-name="Path 394" d="M592.229,344.64l1,2.16,3.483.026,11.608-4.167a.3.3,0,0,0-.293-.111Z" transform="translate(-592.229 -342.544)" fill="#ffe6a6"/>
            </g>
          </g>
          <g id="Group_267" data-name="Group 267" transform="translate(0 2.076)">
            <path id="Path_395" data-name="Path 395" d="M526.65,397.231l1.474,3.01,3.791,7.73,97.55-52.625,0,0h.008a3.525,3.525,0,0,0,.745-.407,4.273,4.273,0,0,0,1.488-1.811,6.628,6.628,0,0,0-.035-5.165,7.348,7.348,0,0,0-1.062-1.823l0-.009a5.4,5.4,0,0,0-4.348-2.209,3.74,3.74,0,0,0-1.306.279,1.409,1.409,0,0,0-.22.094l-.276.153a.578.578,0,0,0-.1.056c-.026.017-.047.038-.073.053Z" transform="translate(-523.908 -343.913)" fill="#011a5f"/>
            <path id="Path_396" data-name="Path 396" d="M526.65,397.231l1.474,3.01,4.235-1,98.257-53.091a.02.02,0,0,0,0-.014l0-.009a5.4,5.4,0,0,0-4.348-2.209,3.74,3.74,0,0,0-1.306.279,1.409,1.409,0,0,0-.22.094l-.276.153a.578.578,0,0,0-.1.056c-.026.017-.047.038-.073.053Z" transform="translate(-523.908 -343.913)" fill="#0c3184"/>
            <path id="Path_397" data-name="Path 397" d="M525.383,386.541c1.253,3.076,4.254,4.762,6.714,3.764l.008,0a3.614,3.614,0,0,0,.746-.408,4.317,4.317,0,0,0,1.487-1.813,6.622,6.622,0,0,0-.033-5.165c-1.039-2.55-3.28-4.146-5.416-4.043a3.789,3.789,0,0,0-1.306.279,2.052,2.052,0,0,0-.218.1l-.278.153a.414.414,0,0,0-.1.056C524.971,380.721,524.241,383.727,525.383,386.541Z" transform="translate(-524.843 -325.839)" fill="#ffa15a"/>
            <path id="Path_398" data-name="Path 398" d="M540.407,373.292l-8.28,4.486a.176.176,0,0,1,.094-.041,3.739,3.739,0,0,1,1.215-.249,5.459,5.459,0,0,1,4.387,2.272,6.344,6.344,0,0,1,1.047,1.772,6.676,6.676,0,0,1,.01,5.171,4.294,4.294,0,0,1-1.01,1.438,1.715,1.715,0,0,1-.388.323l7.919-4.229s.334-.188.5-.293a4.344,4.344,0,0,0,1.471-1.8,6.593,6.593,0,0,0-.033-5.173,6.51,6.51,0,0,0-1.047-1.795,5.418,5.418,0,0,0-4.364-2.248,3.753,3.753,0,0,0-1.311.29C540.549,373.233,540.478,373.274,540.407,373.292Z" transform="translate(-521.077 -328.917)" fill="#e0f9fe"/>
            <path id="Path_399" data-name="Path 399" d="M531.986,376.226a.816.816,0,0,1,.19-.1c-.047.021-.071.042-.094.041Z" transform="translate(-521.15 -327.262)" fill="#fff"/>
            <path id="Path_400" data-name="Path 400" d="M526.591,380.759a3.164,3.164,0,0,1,1.308-.267,5.292,5.292,0,0,1,4.343,2.225,7.264,7.264,0,0,1,1.068,1.819,6.53,6.53,0,0,1,.035,5.149,4.451,4.451,0,0,1-1.5,1.825l7.993-4.295a2.747,2.747,0,0,0,.5-.293,1.716,1.716,0,0,0,.388-.323,4.011,4.011,0,0,0,1.106-1.479,6.687,6.687,0,0,0-.035-5.173,7.683,7.683,0,0,0-1.022-1.792,5.5,5.5,0,0,0-4.387-2.251,3.508,3.508,0,0,0-1.311.29.176.176,0,0,0-.094.041l-.024,0c-.047.021-.071.042-.094.041l-.1.064Z" transform="translate(-523.939 -327.375)" fill="#ff9136"/>
          </g>
        </g>
      </g>
      <g id="Group_274" data-name="Group 274" transform="translate(672.947 477.114)">
        <path id="Path_401" data-name="Path 401" d="M666.956,353.445l12.876-2.1a2.1,2.1,0,0,1,1.952,3.421l-4.75,5.686a9.044,9.044,0,0,1-3.622,2.615L573.546,402.46a11.742,11.742,0,0,1-12.172-2.2h0a3.467,3.467,0,0,1,1.048-5.8l102.671-40.5A9.113,9.113,0,0,1,666.956,353.445Z" transform="translate(-560.227 -347.85)" fill="#191d23" opacity="0.206"/>
        <g id="Group_273" data-name="Group 273" transform="translate(1.389)">
          <g id="Group_271" data-name="Group 271" transform="translate(108.151)">
            <path id="Path_402" data-name="Path 402" d="M632.437,349.328l.751,2.259,2.846,8.592,12.627-10.4a.381.381,0,0,0-.011-.61.3.3,0,0,0-.279-.143Z" transform="translate(-632.437 -349.031)" fill="#ffdc79"/>
            <g id="Group_270" data-name="Group 270">
              <path id="Path_403" data-name="Path 403" d="M632.437,349.328l.751,2.259,3.459.419,12-2.832a.3.3,0,0,0-.279-.143Z" transform="translate(-632.437 -349.031)" fill="#ffe6a6"/>
            </g>
          </g>
          <g id="Group_272" data-name="Group 272" transform="translate(0 0.284)">
            <path id="Path_404" data-name="Path 404" d="M563.314,390.974l1.127,3.155,2.894,8.11L670.2,360.947l0,0h.009a3.539,3.539,0,0,0,.784-.32,4.283,4.283,0,0,0,1.684-1.632,6.633,6.633,0,0,0,.546-5.138,7.332,7.332,0,0,0-.848-1.93l0-.009a5.407,5.407,0,0,0-4.072-2.687,3.754,3.754,0,0,0-1.329.13,1.179,1.179,0,0,0-.229.07l-.293.121a.511.511,0,0,0-.1.044c-.027.014-.052.03-.079.044Z" transform="translate(-560.02 -349.218)" fill="#779a0a"/>
            <path id="Path_405" data-name="Path 405" d="M563.314,390.974l1.127,3.155,4.322-.516,103.616-41.674a.026.026,0,0,0,0-.014l0-.009a5.407,5.407,0,0,0-4.072-2.687,3.754,3.754,0,0,0-1.329.13,1.179,1.179,0,0,0-.229.07l-.293.121a.511.511,0,0,0-.1.044c-.027.014-.052.03-.079.044Z" transform="translate(-560.02 -349.218)" fill="#c3d600" opacity="0.44"/>
            <path id="Path_406" data-name="Path 406" d="M561.418,383.88c.9,3.2,3.691,5.211,6.248,4.5h.008a3.584,3.584,0,0,0,.786-.319,4.329,4.329,0,0,0,1.682-1.635,6.626,6.626,0,0,0,.549-5.135c-.745-2.653-2.791-4.49-4.926-4.628a3.8,3.8,0,0,0-1.329.129,2.091,2.091,0,0,0-.228.071l-.294.123a.427.427,0,0,0-.1.044C561.665,378.049,560.6,380.956,561.418,383.88Z" transform="translate(-561.143 -335.038)" fill="#ffa15a"/>
            <path id="Path_407" data-name="Path 407" d="M577.821,372.189l-8.733,3.522a.189.189,0,0,1,.1-.03,3.72,3.72,0,0,1,1.236-.111,5.46,5.46,0,0,1,4.1,2.753,6.353,6.353,0,0,1,.84,1.878,6.679,6.679,0,0,1-.572,5.139,4.356,4.356,0,0,1-1.167,1.317,1.75,1.75,0,0,1-.423.276l8.346-3.31s.354-.149.531-.234a4.348,4.348,0,0,0,1.666-1.626,6.589,6.589,0,0,0,.549-5.144,6.476,6.476,0,0,0-.836-1.9,5.417,5.417,0,0,0-4.084-2.726,3.76,3.76,0,0,0-1.335.14C577.97,372.145,577.894,372.178,577.821,372.189Z" transform="translate(-557.035 -337.45)" fill="#e0f9fe"/>
            <path id="Path_408" data-name="Path 408" d="M568.94,374.52a.823.823,0,0,1,.2-.082c-.05.015-.076.033-.1.03Z" transform="translate(-557.112 -336.181)" fill="#fff"/>
            <path id="Path_409" data-name="Path 409" d="M563.251,378.051a3.164,3.164,0,0,1,1.33-.118,5.3,5.3,0,0,1,4.065,2.7,7.278,7.278,0,0,1,.854,1.928,6.522,6.522,0,0,1-.544,5.12,4.477,4.477,0,0,1-1.692,1.646l8.424-3.366a2.774,2.774,0,0,0,.532-.235,1.749,1.749,0,0,0,.423-.276,4.031,4.031,0,0,0,1.265-1.346,6.69,6.69,0,0,0,.549-5.144,7.738,7.738,0,0,0-.813-1.9,5.489,5.489,0,0,0-4.106-2.731,3.467,3.467,0,0,0-1.335.14.189.189,0,0,0-.1.03l-.023,0c-.05.015-.076.033-.1.03l-.1.052Z" transform="translate(-560.053 -336.241)" fill="#ff9136"/>
          </g>
        </g>
      </g>
      <g id="Group_279" data-name="Group 279" transform="translate(360.723 189.107)">
        <path id="Path_410" data-name="Path 410" d="M492.169,219.422c.842,1.89-.008,3.422-1.9,3.422a6.008,6.008,0,0,1-4.947-3.422c-.842-1.89.009-3.422,1.9-3.422A6,6,0,0,1,492.169,219.422Z" transform="translate(-286.893 -129.796)" fill="none" stroke="#dae3f2" stroke-miterlimit="10" stroke-width="1"/>
        <path id="Path_411" data-name="Path 411" d="M593.069,249.188c.842,1.89-.009,3.422-1.9,3.422a6.008,6.008,0,0,1-4.947-3.422c-.842-1.89.009-3.424,1.9-3.424A6.009,6.009,0,0,1,593.069,249.188Z" transform="translate(-234.732 -114.409)" fill="none" stroke="#dae3f2" stroke-miterlimit="10" stroke-width="1"/>
        <path id="Path_412" data-name="Path 412" d="M555.171,187.91c.84,1.89-.009,3.422-1.9,3.422a6.007,6.007,0,0,1-4.947-3.422c-.842-1.89.009-3.422,1.9-3.422A6.008,6.008,0,0,1,555.171,187.91Z" transform="translate(-254.324 -146.087)" fill="none" stroke="#dae3f2" stroke-miterlimit="10" stroke-width="1"/>
        <path id="Path_413" data-name="Path 413" d="M361.575,190.992c.842,1.89-.009,3.422-1.9,3.422a6,6,0,0,1-4.945-3.422c-.842-1.89.008-3.422,1.9-3.422A6.007,6.007,0,0,1,361.575,190.992Z" transform="translate(-354.406 -144.493)" fill="none" stroke="#dae3f2" stroke-miterlimit="10" stroke-width="1"/>
        <g id="Group_275" data-name="Group 275" transform="translate(164.935 79.949)">
          <line id="Line_15" data-name="Line 15" y2="6.255" transform="translate(2.933)" fill="none" stroke="#dae3f2" stroke-linecap="round" stroke-linejoin="round" stroke-width="1"/>
          <line id="Line_16" data-name="Line 16" x1="5.867" y1="3.375" transform="translate(0 1.248)" fill="none" stroke="#dae3f2" stroke-linecap="round" stroke-linejoin="round" stroke-width="1"/>
        </g>
        <g id="Group_276" data-name="Group 276" transform="translate(234.617 5.362)">
          <line id="Line_17" data-name="Line 17" y2="6.255" transform="translate(2.933)" fill="none" stroke="#dae3f2" stroke-linecap="round" stroke-linejoin="round" stroke-width="1"/>
          <line id="Line_18" data-name="Line 18" x1="5.867" y1="3.375" transform="translate(0 1.248)" fill="none" stroke="#dae3f2" stroke-linecap="round" stroke-linejoin="round" stroke-width="1"/>
        </g>
        <g id="Group_277" data-name="Group 277" transform="translate(41.949)">
          <line id="Line_19" data-name="Line 19" y2="6.255" transform="translate(2.933)" fill="none" stroke="#dae3f2" stroke-linecap="round" stroke-linejoin="round" stroke-width="1"/>
          <line id="Line_20" data-name="Line 20" x1="5.867" y1="3.375" transform="translate(0 1.248)" fill="none" stroke="#dae3f2" stroke-linecap="round" stroke-linejoin="round" stroke-width="1"/>
        </g>
        <g id="Group_278" data-name="Group 278" transform="translate(409.21 104.156)">
          <line id="Line_21" data-name="Line 21" y2="6.255" transform="translate(2.933)" fill="none" stroke="#dae3f2" stroke-linecap="round" stroke-linejoin="round" stroke-width="1"/>
          <line id="Line_22" data-name="Line 22" x1="5.867" y1="3.375" transform="translate(0 1.248)" fill="none" stroke="#dae3f2" stroke-linecap="round" stroke-linejoin="round" stroke-width="1"/>
        </g>
      </g>
      <g id="Group_294" data-name="Group 294" transform="translate(378.554 208.745)">
        <path id="Path_414" data-name="Path 414" d="M422.27,241.305s-1.147,25.1-2.957,31.2,1.18,15.717-22.444,31.239l7.756,9.669s28.222-12.591,33.344-35.45c2.374-10.591,7.338-37.108,7.338-37.108" transform="translate(-350.284 -136.587)" fill="#f2b1a0"/>
        <path id="Path_415" data-name="Path 415" d="M434.425,398.034c-1.911,2.878-5.811,5.966-12.738,8.923-6.905,2.938-12.057,9.571-17.31,11.432-5.969,2.116-16.063-.4-22.823-7.372-2.444-2.52.3-3.679.25-6.039a10.586,10.586,0,0,1,1.291-5.167c1.585-2.9,6.215-4.565,11.813-6.367s7.876-3.418,11.814-6.611c3.938-3.217,5.279-7.3,6.653-9.149.71-.931,6.238,1.283,7.982,4.737.86,1.748.576,2.353.208,2.9a1.713,1.713,0,0,0,.049,1.848,1.956,1.956,0,0,0,1.238.9c7.3,1.482,6.3-4.571,6.3-4.571C434.292,386.766,438.238,392.3,434.425,398.034Z" transform="translate(-358.726 -65.96)" fill="#191d23" opacity="0.206"/>
        <path id="Path_416" data-name="Path 416" d="M421.732,377.77c-1.911,2.876-5.811,5.965-12.738,8.921-6.905,2.938-12.057,9.571-17.31,11.433-5.969,2.115-16.063-.407-22.823-7.374-2.444-2.52.3-3.679.25-6.039a10.6,10.6,0,0,1,1.291-5.167c1.585-2.9,6.215-4.565,11.813-6.367s7.876-3.418,11.814-6.611c3.938-3.216,5.279-7.3,6.653-9.149.71-.931,6.238,1.283,7.982,4.737.86,1.748.576,2.353.208,2.9a1.713,1.713,0,0,0,.049,1.848,1.96,1.96,0,0,0,1.238.9c7.3,1.482,6.3-4.571,6.3-4.571C421.6,366.5,425.545,372.03,421.732,377.77Z" transform="translate(-365.288 -76.436)" fill="#191d23" opacity="0.206"/>
        <path id="Path_417" data-name="Path 417" d="M441.057,290.348c-2.322.414-40.189,16.292-45.712,27.076-2.107,4.113-2.43,22.251-4.164,36.184-1.1,8.858-.981,28.175-4.989,36.579a21.473,21.473,0,0,1-2.215,3.544c4.518,7.906,15.543,6.392,23.125,1.491.872-2.758-.308-5.852-.118-8.264.525-1.235,15.158-36.711,11.74-50.315,6.312-.525,36.642-12.876,38.9-14.6S449.836,288.778,441.057,290.348Z" transform="translate(-356.95 -111.029)" fill="#f2b1a0"/>
        <g id="Group_280" data-name="Group 280" transform="translate(0 275.261)">
          <path id="Path_418" data-name="Path 418" d="M418.515,367.5a3.006,3.006,0,0,1,.671,2.054c-.14,1.1-1.491,2.822-4.389,4.211s-5.12,1.919-8.105,4.351-8.58,7.685-11.776,10.27a19.479,19.479,0,0,1-10.185,3.782c-2.494.149-6.4-.315-11.518-2.671a12.044,12.044,0,0,1-6.532-7.755,23.465,23.465,0,0,1-.355-5.347" transform="translate(-366.086 -346.376)" fill="#a37676"/>
          <path id="Path_419" data-name="Path 419" d="M418.208,376.657c-2.514,2.3-4.19,2.536-10.937,6.053-6.726,3.5-13.377,12.849-18.874,14.121-5.5,1.3-12.661-2.1-18.018-5.44a8.479,8.479,0,0,1-4.194-6.816,11.459,11.459,0,0,1,1.022-5.432c1.431-3.111,5.957-5.133,11.439-7.366s7.424-4.463,11.182-8.028c3.758-3.588,4.885-7.906,6.16-9.907.66-1.009,6.277.918,8.189,4.378.947,1.754.695,2.4.356,2.987a1.826,1.826,0,0,0,.141,1.908,1.913,1.913,0,0,0,1.279.853c7.348,1.054,10.378-7.16,10.378-7.16C421.617,359.852,420.722,374.355,418.208,376.657Z" transform="translate(-366.16 -353.575)" fill="#fff"/>
          <path id="Path_420" data-name="Path 420" d="M418.2,375.555c-2.514,2.3-4.19,2.536-10.937,6.053-6.726,3.5-13.377,12.849-18.874,14.121-5.5,1.3-11.576-.012-17.636-3.918-2.882-1.857-4.4-5.9-4.577-8.337,2.477,3.231,5.026,7.684,12.947,7.937,6.355.2,11.649.707,16.411-5.438,4.783-6.142,7.876-9.1,13.125-10.86,5.229-1.757,7.65-4.405,6.882-7.171-.787-2.791-2.718-4.7-6.526-4.108s-4.349-1.82-4.349-1.82a1.913,1.913,0,0,0,1.279.853c7.348,1.054,10.378-7.16,10.378-7.16C420.492,358.6,420.714,373.253,418.2,375.555Z" transform="translate(-366.152 -352.473)" fill="#f2f2f2"/>
        </g>
        <path id="Path_421" data-name="Path 421" d="M453.765,311.324c-2.321.414-40.187,16.291-45.711,27.075-2.107,4.112-2.43,22.251-4.164,36.184-1.1,8.858-.981,28.176-4.989,36.58a21.466,21.466,0,0,1-2.215,3.542c4.518,7.908,15.543,6.394,23.125,1.493.872-2.758-.308-5.852-.118-8.264.525-1.235,15.158-36.712,11.74-50.316,6.312-.525,36.642-12.874,38.9-14.6S462.545,309.753,453.765,311.324Z" transform="translate(-350.379 -100.185)" fill="#ffc5b3"/>
        <path id="Path_422" data-name="Path 422" d="M453.737,270.639,409.56,301.711s16.145,5.734,20.62,15.8a54.26,54.26,0,0,1,4.657,21.567l42.913-13.281S479.492,279.061,453.737,270.639Z" transform="translate(-343.724 -121.188)" fill="#353535"/>
        <path id="Path_423" data-name="Path 423" d="M504.4,276.407s13.175,35.69-9.766,61.736c-13.671,15.522-43.346,34.189-43.346,34.189s-9.065-6.618-18.216-20.514c-4.863-7.386-10.124-15.327-10.124-15.327l41.5-43.147Z" transform="translate(-336.802 -118.206)" fill="#353535"/>
        <path id="Path_424" data-name="Path 424" d="M410.541,262.051a42.537,42.537,0,0,0,14.9,6.271,83.007,83.007,0,0,0,15.485,1.72s12.6-39.461,4.607-45.817-17.213-6.7-23.8,3.072C415.269,236.889,410.541,262.051,410.541,262.051Z" transform="translate(-343.217 -147.537)" fill="#95b709"/>
        <path id="Path_425" data-name="Path 425" d="M430.379,316.772c12.237,9.765,30.35,22.362,44.389,18.731,12.929-3.343,24.942-14.281,32.163-24.449-4.235-18.022-10.863-62.5-24.355-79.533-14-17.67-25.2-19.61-25.2-19.61s-10.7-10.761-28.572,12.151-9.442,45.788-3.225,63.473C432.983,308.594,427.886,305.293,430.379,316.772Z" transform="translate(-339.331 -152.854)" fill="#c3d600"/>
        <line id="Line_23" data-name="Line 23" y1="23.651" x2="26.886" transform="translate(86.148 194.633)" fill="none" stroke="#4f4f4f" stroke-miterlimit="10" stroke-width="1.554"/>
        <g id="Group_281" data-name="Group 281" transform="translate(19.255 306.002)">
          <path id="Path_426" data-name="Path 426" d="M431.208,387.764a3.005,3.005,0,0,1,.67,2.054c-.141,1.094-1.493,2.822-4.39,4.211s-5.118,1.917-8.1,4.349-8.58,7.685-11.776,10.27a19.483,19.483,0,0,1-10.186,3.783c-2.492.149-6.4-.316-11.518-2.671a12.046,12.046,0,0,1-6.531-7.755,23.39,23.39,0,0,1-.355-5.349" transform="translate(-378.779 -366.641)" fill="#a37676"/>
          <path id="Path_427" data-name="Path 427" d="M430.9,396.923c-2.514,2.3-4.19,2.536-10.937,6.053-6.726,3.5-13.377,12.849-18.874,14.121-5.5,1.3-12.661-2.1-18.019-5.441a8.475,8.475,0,0,1-4.194-6.814,11.459,11.459,0,0,1,1.023-5.432c1.43-3.111,5.957-5.133,11.438-7.368s7.426-4.461,11.183-8.026c3.758-3.588,4.885-7.906,6.16-9.907.66-1.01,6.277.918,8.189,4.378.947,1.754.695,2.4.356,2.987a1.829,1.829,0,0,0,.14,1.908,1.925,1.925,0,0,0,1.28.853c7.348,1.054,10.378-7.16,10.378-7.16C434.31,380.116,433.415,394.62,430.9,396.923Z" transform="translate(-378.853 -373.839)" fill="#fff"/>
          <path id="Path_428" data-name="Path 428" d="M430.893,395.82c-2.514,2.3-4.19,2.536-10.937,6.053-6.726,3.5-13.377,12.849-18.874,14.121-5.5,1.3-11.576-.014-17.636-3.918-2.882-1.857-4.4-5.9-4.577-8.337,2.476,3.231,5.026,7.682,12.947,7.935,6.355.2,11.649.708,16.411-5.437,4.783-6.142,7.875-9.1,13.125-10.86,5.229-1.757,7.65-4.405,6.882-7.171-.787-2.791-2.718-4.7-6.526-4.108s-4.351-1.82-4.351-1.82a1.925,1.925,0,0,0,1.28.853c7.348,1.054,10.378-7.16,10.378-7.16C433.185,378.87,433.407,393.518,430.893,395.82Z" transform="translate(-378.845 -372.737)" fill="#f2f2f2"/>
        </g>
        <g id="Group_282" data-name="Group 282" transform="translate(76.276)">
          <path id="Path_429" data-name="Path 429" d="M460.687,203.948l-.56,16.364s-17.152,11.506-25.984,9.452c-3.8-.884-5.64-5.846-4.6-12.729l8.146-1.359Z" transform="translate(-409.819 -155.665)" fill="#f2ba88"/>
          <path id="Path_430" data-name="Path 430" d="M419.715,193.851s-5.009,9.395-1.807,27.453c1.782,10.047,7.451,16.729,12.425,19.124s9.51,2.793,18.181-2.371a42.681,42.681,0,0,0,13.621-13.894s1.182.836,4.332-2.482c4.93-5.19,5.93-7.837,6.179-15.109a50.706,50.706,0,0,0-6.588-26.163c-5.332-9.687-22.808-7.251-30.825-3.481S421.493,185.781,419.715,193.851Z" transform="translate(-416.237 -171.346)" fill="#ffd1a4"/>
          <path id="Path_431" data-name="Path 431" d="M418.086,197.881c8.148,15.632,26.978,5.827,26.978,5.827,1.373,6.719,6.007,7.489,8.207,8.788,2.169,1.3,2.165,5.617,2.165,5.617l2.037.07a46.2,46.2,0,0,1,1.716-7.524c1.13-3.2,7.268-5.491,10.132-.645,2.591,4.343-.714,8.979-2.639,12.438-.774,5.567.282,7.934.282,7.934s3.4-3.146,5.839-9.734,3.985-16.367.655-31.456a16.194,16.194,0,0,0-1.628-4.367c-6.251-11.43-25.091-14.259-32.6-11.981-6.476,1.963-18.886,4.982-22.2,15.123A12.484,12.484,0,0,0,418.086,197.881Z" transform="translate(-416.442 -172.119)" fill="#713e23"/>
          <path id="Path_432" data-name="Path 432" d="M418.086,193.551c8.148,15.632,26.978,5.827,26.978,5.827,1.373,6.719,6.007,7.489,8.207,8.788,2.169,1.3,2.165,5.617,2.165,5.617l2.037.07a46.2,46.2,0,0,1,1.716-7.524c1.13-3.2,7.268-5.491,10.132-.645,2.591,4.343-.714,8.979-2.639,12.438-.774,5.567.282,7.934.282,7.934s3.4-3.146,5.839-9.734,3.985-16.367.655-31.456a16.2,16.2,0,0,0-1.628-4.367c-3.744,2.99-13.918,7-25.018,11.22-13.785,5.238-21.14,4.1-24.446,1.079s-5-5.444-5.311-9.126l-.027-.03A12.484,12.484,0,0,0,418.086,193.551Z" transform="translate(-416.442 -167.789)" fill="#442312" opacity="0.34"/>
        </g>
        <path id="Path_433" data-name="Path 433" d="M396.87,303.443s.915,2.717,5.255,3.274l28.213,17.157,56.894-22.108Z" transform="translate(-350.284 -105.097)" fill="#444" opacity="0.15"/>
        <g id="Group_292" data-name="Group 292" transform="translate(16.444 153.214)">
          <g id="Group_291" data-name="Group 291">
            <g id="Group_290" data-name="Group 290">
              <g id="Group_283" data-name="Group 283" transform="translate(29.224 40.211)">
                <path id="Path_434" data-name="Path 434" d="M400.675,299.627l-4.41,2.414L398.579,304l5.06,1.761,4.678-2.78Z" transform="translate(-396.265 -299.627)" fill="#1b91a8"/>
              </g>
              <g id="Group_284" data-name="Group 284" transform="translate(0 3.88)">
                <path id="Path_435" data-name="Path 435" d="M464.907,287.075l-87.382,5.437,29.424,17.177,57.958-20.926Z" transform="translate(-376.729 -269.785)" fill="#004559"/>
                <path id="Path_436" data-name="Path 436" d="M434.936,275.677,377,296.436l29.446,17.019,57.935-20.768Z" transform="translate(-377 -275.677)" fill="#46bce0"/>
                <path id="Path_437" data-name="Path 437" d="M377,289.361v1.688l28.078,16.212,3.349,1.933-2.2-1.27c-.671-.743-.513-1.385-1.056-2.28Z" transform="translate(-377 -268.603)" fill="#007394"/>
              </g>
              <g id="Group_285" data-name="Group 285" transform="translate(35.913 25.066)">
                <path id="Path_438" data-name="Path 438" d="M487.4,300.2l-86.275,5.882,28.34,16.576L487.4,301.885Z" transform="translate(-400.44 -284.188)" fill="#004559"/>
                <path id="Path_439" data-name="Path 439" d="M459.514,289.643l-58.156,20.624,27.989,16.152,57.935-20.768Z" transform="translate(-400.32 -289.643)" fill="#46bce0"/>
                <path id="Path_440" data-name="Path 440" d="M429.7,321.08v-1.689l-27.989-16.152-1.038,1.064Z" transform="translate(-400.674 -282.615)" fill="#007394"/>
              </g>
              <g id="Group_287" data-name="Group 287" transform="translate(5.108)">
                <g id="Group_286" data-name="Group 286">
                  <path id="Path_441" data-name="Path 441" d="M411.4,314.706l54.42-18.992-.881-3.046L434.652,273.12l-54.285,20.259Z" transform="translate(-380.367 -273.12)" fill="#bfcade"/>
                </g>
              </g>
              <g id="Group_289" data-name="Group 289" transform="translate(36.441 19.708)">
                <g id="Group_288" data-name="Group 288">
                  <path id="Path_442" data-name="Path 442" d="M484.112,295.684l-83.089,9.073,28.8,16.664,54.286-18.666Z" transform="translate(-401.023 -281.163)" fill="#74869b"/>
                  <path id="Path_443" data-name="Path 443" d="M401.632,305.645l52.05-17.272c.569-.328,1.1-.719,1.644-1.085.664-.444,2.875-.728,5.379-.526,10.5.848,23.093,13.569,23.093,13.569L429.514,319Z" transform="translate(-400.707 -285.81)" fill="#bfcade"/>
                  <path id="Path_444" data-name="Path 444" d="M401.631,305.061l52.05-17.272c.569-.328,1.1-.719,1.643-1.085.664-.443,2.876-.728,5.381-.526,10.5.848,23.093,13.569,23.093,13.569l-54.286,18.665Z" transform="translate(-400.708 -286.111)" fill="#f5faff"/>
                </g>
              </g>
              <path id="Path_445" data-name="Path 445" d="M410.656,308.88v-1.191a9.628,9.628,0,0,0-2.667-6.622c-9.332-9.853-27.622-14.593-27.622-14.593v4.916Z" transform="translate(-375.259 -266.216)" fill="#d8e2ed"/>
              <path id="Path_446" data-name="Path 446" d="M434.653,273.12l-54.286,20.258s27.275,2.576,30.289,17.949l54.285-18.657C461.928,277.3,434.653,273.12,434.653,273.12Z" transform="translate(-375.259 -273.119)" fill="#ebf6fa"/>
            </g>
            <path id="Path_447" data-name="Path 447" d="M400.333,302.71l1.051.608-.008.029.179.071,28.63,16.591V312.05s-11.573-11.687-21.787-13.405c-.437-.071-.874-.129-1.311-.164a18.3,18.3,0,0,0-3.334.021,2.224,2.224,0,0,0-.437-.008,3.094,3.094,0,0,0-2.162.988,3.033,3.033,0,0,0-.809,1.769,1.663,1.663,0,0,0-.014.264Z" transform="translate(-364.938 -260.043)" fill="#bfcade"/>
            <path id="Path_448" data-name="Path 448" d="M400.333,302.671l1.051.608-.008.029.179.071,28.63,16.591V312.9S416.751,301,408.4,299.065c-.452-.106-6.1-1.282-7.243.073a3.924,3.924,0,0,0-.809,2.074,1.664,1.664,0,0,0-.014.264Z" transform="translate(-364.938 -260.004)" fill="#d8e2ed"/>
          </g>
          <path id="Path_449" data-name="Path 449" d="M395.571,300.095a16.257,16.257,0,0,0,.64,2.1c1.878,3.686,7.547,3.921,7.547,3.921l.894.558.144-.581-.446-1.233a11.515,11.515,0,0,1-6.326-2.351,5.582,5.582,0,0,1-1.177-1.681Z" transform="translate(-367.399 -259.174)" fill="#007394"/>
        </g>
        <g id="Group_293" data-name="Group 293" transform="translate(80.052 177.674)">
          <path id="Path_450" data-name="Path 450" d="M444.909,289.417c3.68-1.356,10.728,5.484,3.16,13.407-1.766,1.849-2.594,3.454-5.052,4.443a30.572,30.572,0,0,1-4.522,1.883,58.077,58.077,0,0,1-7.676,3.515c-2.632,1.209-1.723,1.937-7.591-.854s-2.527-4.552-2.527-4.552l-1.276-1.488a1.383,1.383,0,0,1,.326-2.31l9.859-6.732a7.119,7.119,0,0,1,.762-1.525c-2.665-.155-8.331-.692-8.7-2.455-.479-2.306,6.984-.878,10.053-1.429,1.092-.194,2.8-.416,4.537-.617a7.259,7.259,0,0,1,1.015-.276C439.889,290,442.321,290.348,444.909,289.417Z" transform="translate(-418.931 -289.244)" fill="#ffc5b3"/>
        </g>
        <path id="Path_451" data-name="Path 451" d="M460.608,249.111s4.844,20.691,2.96,26.764-5.306,20.126-29.117,35.36L442.089,321s34.667-16.641,40.069-39.437c2.5-10.563,1.493-32.622,1.493-32.622" transform="translate(-330.856 -132.407)" fill="#ffc5b3"/>
        <path id="Path_452" data-name="Path 452" d="M449.072,266.376a45.484,45.484,0,0,0,13.465,2.632c6.751.091,19.079-5.147,19.079-5.147s1.356-21.147-5.978-33.748-16.734-13.754-24.425-4.58S449.072,266.376,449.072,266.376Z" transform="translate(-324.299 -147.618)" fill="#95b709"/>
      </g>
      <g id="Group_295" data-name="Group 295" transform="translate(533.498 404.544)">
        <path id="Path_453" data-name="Path 453" d="M575.613,323.242a2.13,2.13,0,0,1-.719,1.98l-57.552,31.644a2.078,2.078,0,0,1-2.21.375l-9.757-3.891-2.916-1.17-29.567-11.79-1.432-.59-1.813-.719a2.044,2.044,0,0,1-1.286-1.529,2.1,2.1,0,0,1,.673-2.083l57.41-31.507a2.2,2.2,0,0,1,2.21-.375l3.865,1.535,1.428.561L563.61,317.4l2.853,1.124,7.817,3.084A2.129,2.129,0,0,1,575.613,323.242Z" transform="translate(-468.301 -300.029)" fill="#1796ce" opacity="0.3" style="mix-blend-mode: multiply;isolation: isolate"/>
        <path id="Path_454" data-name="Path 454" d="M470.607,330.525l54.338-28.839a2.01,2.01,0,0,1,2.058-.353l42.662,16.843a2.012,2.012,0,0,1,.581,3.389l-54.486,28.971a2.015,2.015,0,0,1-2.068.35l-42.51-16.975A2.012,2.012,0,0,1,470.607,330.525Z" transform="translate(-467.467 -301.192)" fill="#b3e8f4"/>
        <path id="Path_455" data-name="Path 455" d="M567.528,318.633a.956.956,0,0,0-.273.774l-39.644-15.651a2.01,2.01,0,0,0-2.059.353L472.9,331.48c-1.282-.127-2.958-.258-2.958-.258l.642,3.78.056,0a1.947,1.947,0,0,0,1.147,1.327l42.51,16.973a2.008,2.008,0,0,0,2.066-.35l54.488-28.969a1.92,1.92,0,0,0,.629-1.435l.1-.017-.695-4.094S568.02,318.279,567.528,318.633Z" transform="translate(-467.451 -299.94)" fill="#77bdc9"/>
        <path id="Path_456" data-name="Path 456" d="M570.895,318.45l.692,4.082-.1.018a1.891,1.891,0,0,1-.639,1.431l-54.485,28.974a2.054,2.054,0,0,1-2.066.35l-9.1-3.642-2.782-1.11-30.644-12.222a1.906,1.906,0,0,1-1.133-1.338l-.052.009-.64-3.78s1.681.129,2.946.252l52.658-27.368a2.051,2.051,0,0,1,2.066-.35l29.343,11.588,2.668,1.051,7.614,3.011a1,1,0,0,1,.284-.774C568.011,318.265,570.895,318.45,570.895,318.45Z" transform="translate(-467.449 -299.937)" fill="#ededed"/>
        <path id="Path_457" data-name="Path 457" d="M570.914,319.7a1.99,1.99,0,0,1-.672,1.851l-54.485,28.974a1.939,1.939,0,0,1-2.066.35l-9.122-3.638-2.726-1.092L474.2,335.127l-1.338-.551-1.7-.672a1.912,1.912,0,0,1-1.2-1.429,1.968,1.968,0,0,1,.628-1.948l54.351-28.848a2.055,2.055,0,0,1,2.066-.35l3.615,1.435,1.333.526,27.732,10.954,2.668,1.051,7.307,2.882A1.991,1.991,0,0,1,570.914,319.7Z" transform="translate(-467.467 -301.191)" fill="#30c6c6"/>
        <path id="Path_458" data-name="Path 458" d="M511.185,306.965,504.1,313.13l17.577,6.992,7.111-6.186Z" transform="translate(-449.795 -298.208)" fill="#e0f9fe"/>
      </g>
      <g id="Group_297" data-name="Group 297" transform="translate(533.789 393.124)">
        <path id="Path_459" data-name="Path 459" d="M469.187,323l54.336-28.841a2.013,2.013,0,0,1,2.059-.353l42.662,16.843a2.011,2.011,0,0,1,.581,3.389l-54.486,28.971a2.013,2.013,0,0,1-2.066.35L469.76,326.384A2.012,2.012,0,0,1,469.187,323Z" transform="translate(-468.492 -293.664)" fill="#b3e8f4"/>
        <path id="Path_460" data-name="Path 460" d="M566.107,311.1a.958.958,0,0,0-.273.775L526.19,296.227a2.01,2.01,0,0,0-2.059.353l-52.649,27.371c-1.282-.126-2.958-.258-2.958-.258l.642,3.78.056.006a1.952,1.952,0,0,0,1.147,1.326L512.88,345.78a2.01,2.01,0,0,0,2.066-.352l54.486-28.97a1.925,1.925,0,0,0,.631-1.434l.1-.018-.693-4.094S566.6,310.75,566.107,311.1Z" transform="translate(-468.477 -292.411)" fill="#77bdc9"/>
        <path id="Path_461" data-name="Path 461" d="M569.474,310.923l.693,4.082-.1.017a1.888,1.888,0,0,1-.639,1.431l-54.485,28.974a2.051,2.051,0,0,1-2.066.35l-9.1-3.642L501,341.025,470.355,328.8a1.9,1.9,0,0,1-1.135-1.338l-.05.009-.642-3.78s1.681.129,2.946.252l52.658-27.368a2.052,2.052,0,0,1,2.066-.35l29.344,11.588,2.667,1.051,7.615,3.013a1,1,0,0,1,.284-.775C566.59,310.738,569.474,310.923,569.474,310.923Z" transform="translate(-468.474 -292.409)" fill="#ededed"/>
        <path id="Path_462" data-name="Path 462" d="M569.493,312.176a1.991,1.991,0,0,1-.671,1.851L514.336,343a1.944,1.944,0,0,1-2.066.35l-9.12-3.638-2.726-1.094L472.783,327.6l-1.338-.551-1.7-.672a1.912,1.912,0,0,1-1.2-1.429,1.969,1.969,0,0,1,.63-1.948l54.35-28.847a2.057,2.057,0,0,1,2.068-.352l3.613,1.437,1.333.525,27.732,10.954,2.668,1.051,7.307,2.884A1.985,1.985,0,0,1,569.493,312.176Z" transform="translate(-468.493 -293.663)" fill="#4de4e8"/>
        <g id="Group_296" data-name="Group 296" transform="translate(31.884 13.355)">
          <path id="Path_463" data-name="Path 463" d="M492.271,335.087l.013.076.649,3.675-2.781-1.11-.641-3.624.046-.034L544.7,304.518l3.66-2.051,2.667,1.051-3.66,2.051Z" transform="translate(-489.511 -302.467)" fill="#4d8e93"/>
        </g>
        <path id="Path_464" data-name="Path 464" d="M513.376,298.786l-9.263,5.052,17.577,6.992,9.287-5.073Z" transform="translate(-450.078 -291.016)" fill="#e0f9fe"/>
      </g>
      <g id="Group_303" data-name="Group 303" transform="translate(619.07 105.386)">
        <path id="Path_465" data-name="Path 465" d="M565.264,168.149H554.53s-5.014-3.688.02-4.191l5.033-.5Z" transform="translate(-510.444 -73.24)" fill="#ed8406"/>
        <path id="Path_466" data-name="Path 466" d="M558.25,108H547.1v1.44l6.131,1.438,5.651-.483Z" transform="translate(-513.137 -101.908)" fill="#ed8406"/>
        <g id="Group_302" data-name="Group 302" transform="translate(0 0)">
          <ellipse id="Ellipse_54" data-name="Ellipse 54" cx="31.282" cy="44.927" rx="31.282" ry="44.927" transform="matrix(0.978, -0.211, 0.211, 0.978, 9.262, 13.176)" fill="#ed8406"/>
          <ellipse id="Ellipse_55" data-name="Ellipse 55" cx="31.282" cy="44.927" rx="31.282" ry="44.927" transform="translate(0 13.176) rotate(-12.157)" fill="#fbc006"/>
          <ellipse id="Ellipse_56" data-name="Ellipse 56" cx="24.085" cy="34.591" rx="24.085" ry="34.591" transform="translate(9.213 21.765) rotate(-12.157)" fill="#fff"/>
          <g id="Group_301" data-name="Group 301" transform="translate(36.619 31.718)">
            <g id="Group_298" data-name="Group 298" transform="translate(0 17.789)">
              <path id="Path_467" data-name="Path 467" d="M553.412,139.466c.34,1.767-.388,3.368-1.625,3.575s-2.514-1.057-2.853-2.825.388-3.368,1.625-3.575S553.073,137.7,553.412,139.466Z" transform="translate(-548.851 -136.619)" fill="#ed8406"/>
            </g>
            <g id="Group_299" data-name="Group 299" transform="translate(1.173)">
              <path id="Path_468" data-name="Path 468" d="M550.774,147.054a1.15,1.15,0,0,1-1.15-1.151V126.044a1.151,1.151,0,1,1,2.3,0V145.9A1.15,1.15,0,0,1,550.774,147.054Z" transform="translate(-549.624 -124.893)" fill="#ed8406"/>
            </g>
            <g id="Group_300" data-name="Group 300" transform="translate(1.172 17.579)">
              <path id="Path_469" data-name="Path 469" d="M550.773,141.064a1.151,1.151,0,0,1-.188-2.286l13.6-2.278a1.151,1.151,0,0,1,.382,2.269l-13.6,2.278A1.055,1.055,0,0,1,550.773,141.064Z" transform="translate(-549.623 -136.481)" fill="#ed8406"/>
            </g>
          </g>
        </g>
      </g>
      <g id="Group_304" data-name="Group 304" transform="translate(559.468 297.143)">
        <path id="Path_470" data-name="Path 470" d="M529.425,242.385a1.206,1.206,0,0,0-1.816-1.032L499.125,254.4a1.34,1.34,0,0,0-.633,1.377l5.827,33.771a1.34,1.34,0,0,1-.6,1.355l-17.686,11.332a1.338,1.338,0,0,0,.07,2.3l14.62,8.17a3.387,3.387,0,0,0,3.374-.035c6.176-3.629,27.665-16.256,34.643-20.353a1.333,1.333,0,0,0-.121-2.36l-3.081-1.424a1.34,1.34,0,0,1-.774-1.283Z" transform="translate(-485.421 -224.812)" fill="#1796ce" opacity="0.3" style="mix-blend-mode: multiply;isolation: isolate"/>
        <path id="Path_471" data-name="Path 471" d="M520.661,231.188l-32.019,18.745,10.949,6.2,22.92-18.942-.035-4.968A1.206,1.206,0,0,0,520.661,231.188Z" transform="translate(-483.755 -230.067)" fill="#30c6c6"/>
        <path id="Path_472" data-name="Path 472" d="M488.647,250.976l31.839-18.64,11.555,6.559-31.83,18.634Z" transform="translate(-483.753 -229.388)" fill="#e0f9fe"/>
        <path id="Path_473" data-name="Path 473" d="M534.111,237.9a1.315,1.315,0,0,0-1.394-.123L500.8,256.456l-10.949-6.2,32.019-18.745a1.182,1.182,0,0,1,1.044-.076v-.006s-1.124-.542-1.569-.8a1.3,1.3,0,0,0-1.349-.088l-33.687,19.722.4,56.83,12.618-7.388.1,14.619,34.449-20.168a2.087,2.087,0,0,0,1.033-1.816l.7-53.616S534.6,238.2,534.111,237.9Z" transform="translate(-484.962 -230.392)" fill="#8eefef"/>
        <path id="Path_474" data-name="Path 474" d="M500.815,251.722l-14.507-8.22.4,56.83,14.507,8.221Z" transform="translate(-484.963 -223.615)" fill="#4de4e8"/>
        <path id="Path_475" data-name="Path 475" d="M529.558,235.977,495.871,255.7l.4,56.83,34.447-20.167a2.088,2.088,0,0,0,1.033-1.817l-.378-53.535A1.206,1.206,0,0,0,529.558,235.977Z" transform="translate(-480.019 -227.591)" fill="#30c6c6"/>
        <path id="Path_476" data-name="Path 476" d="M521.5,241.977l-16.041,9.391.181,10.084,16.041-9.391Z" transform="translate(-475.062 -224.403)" fill="#e0f9fe" opacity="0.42"/>
      </g>
      <g id="Group_307" data-name="Group 307" transform="translate(640.206 377.155)">
        <path id="Path_477" data-name="Path 477" d="M573.544,284.192c-7.821.229-14.049,4.134-13.914,8.721,0,0-.024,1.74,0,2.536a5.018,5.018,0,0,0,.193,1.236,6.867,6.867,0,0,0,2.4,3.366l-2.911,1.816a2.2,2.2,0,0,0-1.183-.231,1.776,1.776,0,0,0-.6.167.572.572,0,0,0-.1.052l-.124.079a.194.194,0,0,0-.045.029l-.033.027L541,312.023h0a1.023,1.023,0,0,0-.1.052l-.126.08a.227.227,0,0,0-.044.029,2.68,2.68,0,0,0-.549,3.346,2.577,2.577,0,0,0,3.239,1.567h0a1.656,1.656,0,0,0,.337-.211l0,0,16.192-10.007,0,0h0a1.646,1.646,0,0,0,.335-.211,2,2,0,0,0,.643-.887,2.827,2.827,0,0,0,.155-1.235l3.961-2.471h0a1.033,1.033,0,0,0,.193-.121c.033-.026.045-.074.076-.1a21.14,21.14,0,0,0,8.712,1.488c7.1-.208,12.891-3.447,13.792-7.474.093-.407.121-3.78.121-3.78C587.811,287.493,581.364,283.961,573.544,284.192Z" transform="translate(-538.024 -282.597)" fill="#1796ce" opacity="0.3" style="mix-blend-mode: multiply;isolation: isolate"/>
        <g id="Group_306" data-name="Group 306">
          <path id="Path_478" data-name="Path 478" d="M551.691,294.185a5.059,5.059,0,0,0,.193,1.236c1.139,3.967,7.108,6.86,14.209,6.65s12.891-3.447,13.794-7.474c.091-.408.12-3.782.12-3.782s-3.718-7.4-14.4-7.253c-6.464.09-13.914,8.085-13.914,8.085S551.669,293.389,551.691,294.185Zm2.248-.065a4.675,4.675,0,0,1,.93-2.853c1.776-2.5,5.91-4.339,10.775-4.483s9.1,1.446,11.019,3.842a4.666,4.666,0,0,1,1.1,2.793c.114,3.856-5.126,5.353-11.7,5.548S554.053,297.976,553.94,294.12Z" transform="translate(-531.904 -282.918)" fill="#4a86ce"/>
          <g id="Group_305" data-name="Group 305" transform="translate(21.489 1.23)">
            <path id="Path_479" data-name="Path 479" d="M552.812,291.45c.115,3.937,5.763,6.964,12.615,6.764s12.31-3.557,12.195-7.494-5.764-6.964-12.615-6.763S552.7,287.513,552.812,291.45Z" transform="translate(-552.81 -283.948)" opacity="0.2" fill="url(#linear-gradient-2)" style="mix-blend-mode: screen;isolation: isolate"/>
            <path id="Path_480" data-name="Path 480" d="M556.285,285.289c12.356.272,16.074,6.353,17.105,9.792a5.539,5.539,0,0,0,2.436-4.41c-.118-3.935-5.729-6.823-12.582-6.623A20.7,20.7,0,0,0,556.285,285.289Z" transform="translate(-551.013 -283.901)" fill="#fff" opacity="0.5" style="mix-blend-mode: screen;isolation: isolate"/>
            <path id="Path_481" data-name="Path 481" d="M553.618,289.318c.1,3.483,5.1,6.162,11.166,5.984s10.9-3.146,10.793-6.634c0-.1-.009-.2-.021-.3-.338,3.271-4.991,5.968-10.772,6.141-5.883.178-10.761-2.342-11.144-5.67A2.818,2.818,0,0,0,553.618,289.318Z" transform="translate(-552.393 -281.663)" fill="#fff" opacity="0.5" style="mix-blend-mode: screen;isolation: isolate"/>
          </g>
          <path id="Path_482" data-name="Path 482" d="M552.775,289.194l3.213-3.339,9.269-2.292,9.388,1.743,3.4,3.145.886,1.961-1.344.47s-1.584-6.377-12.3-6.062-11.919,6.773-11.919,6.773l-1.37-.39Z" transform="translate(-531.736 -282.917)" fill="#0a2982"/>
          <path id="Path_483" data-name="Path 483" d="M551.689,291.869a5.059,5.059,0,0,0,.193,1.236c1.139,3.968,7.108,6.86,14.209,6.65s12.891-3.447,13.794-7.474a5.038,5.038,0,0,0,.12-1.245c-.135-4.587-6.582-8.117-14.4-7.888S551.554,287.283,551.689,291.869Zm2.248-.065a4.675,4.675,0,0,1,.93-2.853c1.776-2.5,5.91-4.338,10.775-4.483s9.1,1.446,11.019,3.842a4.665,4.665,0,0,1,1.1,2.793c.114,3.856-5.126,7.139-11.7,7.333S554.051,295.659,553.937,291.8Z" transform="translate(-531.901 -283.137)" fill="#80c4e7"/>
          <path id="Path_484" data-name="Path 484" d="M551.689,291.869a5.059,5.059,0,0,0,.193,1.236c1.139,3.968,7.108,6.86,14.209,6.65s12.891-3.447,13.794-7.474a5.038,5.038,0,0,0,.12-1.245c-.135-4.587-6.582-8.117-14.4-7.888S551.554,287.283,551.689,291.869Zm2.248-.065a4.675,4.675,0,0,1,.93-2.853c1.776-2.5,5.91-4.338,10.775-4.483s9.1,1.446,11.019,3.842a4.665,4.665,0,0,1,1.1,2.793c.114,3.856-5.126,7.139-11.7,7.333S554.051,295.659,553.937,291.8Z" transform="translate(-531.901 -283.137)" fill="#d5ebff"/>
          <path id="Path_485" data-name="Path 485" d="M550.568,296.616l.27.4,0,0,1.214,1.8.311.461,5.32-3.319h0a.917.917,0,0,0,.193-.12,1.162,1.162,0,0,0,.369-.51,1.355,1.355,0,0,0,.082-.329h0a1.867,1.867,0,0,0-.178-1.053,1.8,1.8,0,0,0-.912-.9,1.231,1.231,0,0,0-.6-.094,1.032,1.032,0,0,0-.346.1c-.02.009-.038.02-.056.03l-.073.046a.137.137,0,0,0-.024.017Z" transform="translate(-532.48 -278.067)" fill="#d5ebff"/>
          <path id="Path_486" data-name="Path 486" d="M550.568,296.616l.27.4,0,0,6.4-3.974a1.231,1.231,0,0,0-.6-.094,1.032,1.032,0,0,0-.346.1c-.02.009-.038.02-.056.03l-.073.046a.137.137,0,0,0-.024.017Z" transform="translate(-532.48 -278.067)" fill="#fff"/>
          <path id="Path_487" data-name="Path 487" d="M551.549,298.116l.311.461,5.32-3.319h0a.914.914,0,0,0,.193-.12,1.162,1.162,0,0,0,.369-.51,1.354,1.354,0,0,0,.082-.329Z" transform="translate(-531.972 -277.367)" fill="#396bb3"/>
          <path id="Path_488" data-name="Path 488" d="M539.4,305.037l.772,1.361,1.987,3.5,16.194-10.007,0,0h0a1.667,1.667,0,0,0,.335-.209,1.984,1.984,0,0,0,.643-.887,3.1,3.1,0,0,0-.162-2.409,3.426,3.426,0,0,0-.546-.821l0,0a2.524,2.524,0,0,0-2.092-.909,1.707,1.707,0,0,0-.6.167.614.614,0,0,0-.1.05l-.124.079a.337.337,0,0,0-.046.03c-.011.008-.02.018-.032.026Z" transform="translate(-538.251 -277.192)" fill="#2d2d2d"/>
          <path id="Path_489" data-name="Path 489" d="M539.4,305.037l.772,1.361,1.948-.586,16.511-10.246,0-.006,0,0a2.524,2.524,0,0,0-2.092-.909,1.707,1.707,0,0,0-.6.167.614.614,0,0,0-.1.05l-.124.079a.337.337,0,0,0-.046.03c-.011.008-.02.018-.032.026Z" transform="translate(-538.251 -277.192)" fill="#3a3a3a"/>
          <path id="Path_490" data-name="Path 490" d="M538.978,305.06a2.577,2.577,0,0,0,3.239,1.566h0a1.653,1.653,0,0,0,.337-.209,2.02,2.02,0,0,0,.643-.889,3.091,3.091,0,0,0-.162-2.409,2.784,2.784,0,0,0-2.639-1.732,1.767,1.767,0,0,0-.6.167c-.033.015-.067.033-.1.052l-.126.079a.223.223,0,0,0-.044.029A2.685,2.685,0,0,0,538.978,305.06Z" transform="translate(-538.644 -273.709)" fill="#4b4c4c"/>
        </g>
      </g>
      <g id="Group_331" data-name="Group 331" transform="translate(615.237 309.277)">
        <g id="Group_309" data-name="Group 309" transform="translate(0 38.087)">
          <ellipse id="Ellipse_57" data-name="Ellipse 57" cx="10.771" cy="6.113" rx="10.771" ry="6.113" transform="translate(4.077 36.423)" fill="#1796ce" opacity="0.3" style="mix-blend-mode: multiply;isolation: isolate"/>
          <ellipse id="Ellipse_58" data-name="Ellipse 58" cx="10.771" cy="6.113" rx="10.771" ry="6.113" transform="translate(4.077 34.245)" fill="#779a0a"/>
          <path id="Path_491" data-name="Path 491" d="M551.881,269.054,547.8,300.985l-21.542.482-4.077-32.412Z" transform="translate(-522.184 -260.627)" fill="#779a0a"/>
          <g id="Group_308" data-name="Group 308">
            <ellipse id="Ellipse_59" data-name="Ellipse 59" cx="14.848" cy="8.428" rx="14.848" ry="8.428" fill="#c3d600"/>
            <path id="Path_492" data-name="Path 492" d="M536.375,277.771c-7.615,0-12.922-3.427-12.922-6.5s5.306-6.5,12.922-6.5,12.923,3.427,12.923,6.5S543.992,277.771,536.375,277.771Z" transform="translate(-521.528 -262.842)" fill="#272c91"/>
            <path id="Path_493" data-name="Path 493" d="M536.375,277.771c-7.615,0-12.922-3.427-12.922-6.5s5.306-6.5,12.922-6.5,12.923,3.427,12.923,6.5S543.992,277.771,536.375,277.771Z" transform="translate(-521.528 -262.842)" fill="#617704"/>
          </g>
        </g>
        <g id="Group_330" data-name="Group 330" transform="translate(1.744)">
          <g id="Group_329" data-name="Group 329" clip-path="url(#clip-path)">
            <g id="Group_311" data-name="Group 311" transform="translate(14.049 31.136)">
              <path id="Path_494" data-name="Path 494" d="M535.628,269.016h0a.491.491,0,0,1-.388-.575l.9-4.628a.491.491,0,0,1,.575-.388h0a.491.491,0,0,1,.388.575l-.9,4.628A.49.49,0,0,1,535.628,269.016Z" transform="translate(-531.233 -256.59)" fill="#fd9220"/>
              <g id="Group_310" data-name="Group 310">
                <path id="Path_495" data-name="Path 495" d="M535.806,283.764c-.085.448-.871.514-1.755.15s-1.532-1.022-1.449-1.47.871-.514,1.755-.149S535.891,283.316,535.806,283.764Z" transform="translate(-532.595 -246.952)" fill="#9a98ed"/>
                <path id="Path_496" data-name="Path 496" d="M539.258,259.169,532.6,294.278l3.2,1.32,6.657-35.108Z" transform="translate(-532.592 -258.785)" fill="#fbc006"/>
                <path id="Path_497" data-name="Path 497" d="M540.194,260.621c-.085.446-.869.513-1.754.149s-1.534-1.022-1.449-1.47.871-.513,1.755-.149S540.279,260.173,540.194,260.621Z" transform="translate(-530.326 -258.916)" fill="#205ce1"/>
              </g>
            </g>
            <g id="Group_328" data-name="Group 328" transform="translate(8.333 20.949)">
              <path id="Path_498" data-name="Path 498" d="M536.268,255.165l-.026,1.117-.014.457-.039,1.538-.006.455-.039,1.54-.012.455-.033,1.494-.014.455-.039,1.512-.012.455L536,266.181l-.012.448-.039,1.538-.014.455-.032,1.511-.014.448-.039,1.52-.006.457-.039,1.52-.014.447-.032,1.547-.014.455-.039,1.538-.012.447-.033,1.529-.012.448-.039,1.547-.014.446-.032,1.52-.014.457L535.509,286l-.006.447-.158,6.286c-.032,1.44-1.065,2.441-2.072,2.011l-3.334-1.43a2.255,2.255,0,0,1-1.11-2.172l1.13-36.852c.039-1.306.909-2.272,1.851-2.057l3.125.707A2.116,2.116,0,0,1,536.268,255.165Z" transform="translate(-528.827 -252.201)" fill="#fe5c99"/>
              <g id="Group_312" data-name="Group 312" transform="translate(5.825 3.716)">
                <path id="Path_499" data-name="Path 499" d="M534.257,255.015l-.014.457a.039.039,0,0,1-.026-.009L532.8,255.1a.245.245,0,0,1-.13-.267c.018-.117.1-.206.2-.17Z" transform="translate(-532.667 -254.651)" fill="#fff"/>
              </g>
              <g id="Group_313" data-name="Group 313" transform="translate(5.77 5.704)">
                <path id="Path_500" data-name="Path 500" d="M534.222,256.333l-.006.455a.047.047,0,0,1-.032-.008l-1.42-.376a.216.216,0,0,1-.13-.259c.02-.117.1-.2.19-.179Z" transform="translate(-532.63 -255.961)" fill="#fff"/>
              </g>
              <g id="Group_314" data-name="Group 314" transform="translate(5.718 7.698)">
                <path id="Path_501" data-name="Path 501" d="M534.195,257.648l-.012.455c-.014,0-.02-.009-.033-.009l-1.418-.375a.221.221,0,0,1-.13-.259c.02-.126.1-.206.19-.179Z" transform="translate(-532.596 -257.275)" fill="#fff"/>
              </g>
              <g id="Group_315" data-name="Group 315" transform="translate(5.679 9.647)">
                <path id="Path_502" data-name="Path 502" d="M534.162,258.933l-.014.455c-.012,0-.02,0-.026-.009L532.7,259a.217.217,0,0,1-.13-.259c.02-.126.1-.206.19-.179Z" transform="translate(-532.57 -258.56)" fill="#fff"/>
              </g>
              <g id="Group_316" data-name="Group 316" transform="translate(5.628 11.615)">
                <path id="Path_503" data-name="Path 503" d="M534.127,260.23l-.012.455a.037.037,0,0,1-.026-.009l-1.42-.375c-.085-.018-.143-.135-.13-.259s.1-.206.2-.179Z" transform="translate(-532.537 -259.858)" fill="#fff"/>
              </g>
              <g id="Group_317" data-name="Group 317" transform="translate(5.576 13.605)">
                <path id="Path_504" data-name="Path 504" d="M534.1,261.545l-.012.448h-.033l-1.418-.376a.247.247,0,0,1-.13-.268c.02-.115.1-.2.2-.17Z" transform="translate(-532.503 -261.17)" fill="#fff"/>
              </g>
              <g id="Group_318" data-name="Group 318" transform="translate(5.537 15.594)">
                <path id="Path_505" data-name="Path 505" d="M534.061,262.853l-.014.455a.022.022,0,0,1-.02-.009l-1.418-.375a.229.229,0,0,1-.13-.259c.02-.117.1-.206.2-.179Z" transform="translate(-532.477 -262.481)" fill="#fff"/>
              </g>
              <g id="Group_319" data-name="Group 319" transform="translate(5.476 17.558)">
                <path id="Path_506" data-name="Path 506" d="M534.036,264.149l-.014.448h-.032l-1.42-.375a.228.228,0,0,1-.13-.259c.02-.126.1-.215.19-.179Z" transform="translate(-532.437 -263.776)" fill="#fff"/>
              </g>
              <g id="Group_320" data-name="Group 320" transform="translate(5.436 19.528)">
                <path id="Path_507" data-name="Path 507" d="M534,265.445l-.006.457a.037.037,0,0,1-.026-.009l-1.418-.375a.216.216,0,0,1-.132-.259c.02-.126.1-.206.19-.179Z" transform="translate(-532.411 -265.074)" fill="#fff"/>
              </g>
              <g id="Group_321" data-name="Group 321" transform="translate(5.385 21.501)">
                <path id="Path_508" data-name="Path 508" d="M533.969,266.75l-.014.448h-.026l-1.418-.376a.226.226,0,0,1-.13-.259c.02-.124.1-.214.19-.179Z" transform="translate(-532.377 -266.375)" fill="#fff"/>
              </g>
              <g id="Group_322" data-name="Group 322" transform="translate(5.334 23.499)">
                <path id="Path_509" data-name="Path 509" d="M533.94,268.064l-.014.455a.043.043,0,0,1-.032-.009l-1.418-.375a.231.231,0,0,1-.132-.259c.02-.117.1-.206.2-.179Z" transform="translate(-532.343 -267.692)" fill="#fff"/>
              </g>
              <g id="Group_323" data-name="Group 323" transform="translate(5.28 25.484)">
                <path id="Path_510" data-name="Path 510" d="M533.906,269.381l-.012.447h-.006c-.008,0-.02-.009-.027-.009l-1.418-.375a.222.222,0,0,1-.13-.259c.012-.126.1-.206.19-.179Z" transform="translate(-532.307 -269)" fill="#fff"/>
              </g>
              <g id="Group_324" data-name="Group 324" transform="translate(5.222 27.461)">
                <path id="Path_511" data-name="Path 511" d="M533.88,270.683l-.012.448h-.014a.042.042,0,0,1-.032-.009l-1.42-.376c-.091-.017-.144-.134-.13-.259s.1-.2.19-.178Z" transform="translate(-532.27 -270.304)" fill="#fff"/>
              </g>
              <g id="Group_325" data-name="Group 325" transform="translate(5.197 29.463)">
                <path id="Path_512" data-name="Path 512" d="M533.837,272l-.014.446h-.02l-1.418-.375a.243.243,0,0,1-.13-.259c.02-.126.1-.206.2-.179Z" transform="translate(-532.253 -271.623)" fill="#fff"/>
              </g>
              <g id="Group_326" data-name="Group 326" transform="translate(5.149 31.431)">
                <path id="Path_513" data-name="Path 513" d="M533.807,273.291l-.014.457a.02.02,0,0,1-.02-.009l-1.418-.375a.217.217,0,0,1-.13-.259c.012-.117.1-.206.19-.179Z" transform="translate(-532.221 -272.921)" fill="#fff"/>
              </g>
              <g id="Group_327" data-name="Group 327" transform="translate(5.09 33.424)">
                <path id="Path_514" data-name="Path 514" d="M533.774,274.607l-.006.447h-.033l-1.418-.376a.226.226,0,0,1-.13-.259c.014-.124.1-.206.19-.179Z" transform="translate(-532.182 -274.235)" fill="#fff"/>
              </g>
            </g>
          </g>
        </g>
      </g>
    </g>
  </g>
</svg>
