<svg xmlns="http://www.w3.org/2000/svg" xmlns:xlink="http://www.w3.org/1999/xlink" width="583" height="768" viewBox="0 0 583 768">
  <defs>
    <linearGradient id="linear-gradient" x1="0.5" x2="0.5" y2="1" gradientUnits="objectBoundingBox">
      <stop offset="0" stop-color="#6e00a4"/>
      <stop offset="1" stop-color="#520052"/>
    </linearGradient>
    <linearGradient id="linear-gradient-2" x1="-14.483" y1="0.408" x2="-13.245" y2="0.643" gradientUnits="objectBoundingBox">
      <stop offset="0" stop-color="#ffe2c4"/>
      <stop offset="1" stop-color="#ffb870"/>
    </linearGradient>
    <linearGradient id="linear-gradient-3" x1="-9.475" y1="0.5" x2="-7.955" y2="0.5" gradientUnits="objectBoundingBox">
      <stop offset="0" stop-color="#fff"/>
      <stop offset="0.717" stop-color="#efefef"/>
      <stop offset="1" stop-color="#e8e8e8"/>
    </linearGradient>
    <linearGradient id="linear-gradient-4" x1="-9.775" y1="0.252" x2="-8.832" y2="0.252" xlink:href="#linear-gradient-2"/>
    <linearGradient id="linear-gradient-5" x1="-27.945" y1="0.5" x2="-26.945" y2="0.5" xlink:href="#linear-gradient-2"/>
    <linearGradient id="linear-gradient-6" x1="1.934" y1="0.5" x2="2.934" y2="0.5" gradientUnits="objectBoundingBox">
      <stop offset="0" stop-color="#242424"/>
      <stop offset="0.683" stop-color="#696969"/>
      <stop offset="1" stop-color="#3d3d3d"/>
    </linearGradient>
  </defs>
  <g id="Group_631" data-name="Group 631" transform="translate(-783 -1)">
    <rect id="BG" width="583" height="768" transform="translate(783 1)" fill="url(#linear-gradient)"/>
    <g id="Image_for_Teacher_Registration" data-name="Image for Teacher Registration" transform="translate(782.277 98.077)">
      <g id="Group_337" data-name="Group 337" transform="translate(267.254 75.377)">
        <g id="Group_336" data-name="Group 336" transform="translate(0 2.546)">
          <path id="Path_517" data-name="Path 517" d="M231.275,266.862,482.23,411.751V228.991L231.275,84.1Z" transform="translate(-226.586 -75.978)" fill="#fff"/>
          <path id="Path_518" data-name="Path 518" d="M239.934,89.1V260.919l242.3,139.889v10.942L231.275,266.862V84.1Z" transform="translate(-226.586 -75.978)" fill="#2d2d2d"/>
          <path id="Path_519" data-name="Path 519" d="M227.441,77.459,487.776,227.764V421.357l-260.335-150.3ZM478.394,233.182,236.824,93.71V265.635L478.394,405.106Z" transform="translate(-227.441 -77.459)" fill="#0081b4"/>
          <g id="Group_335" data-name="Group 335" transform="translate(5.081 9.007)">
            <path id="Path_520" data-name="Path 520" d="M231.6,84.824l4.3,7.24V263.993L477.35,403.4l3.713,7.11L231.6,266.474Z" transform="translate(-231.596 -84.824)" fill="#027396"/>
          </g>
        </g>
      </g>
      <g id="Group_412" data-name="Group 412" transform="translate(267.254 75.377)">
        <g id="Group_336-2" data-name="Group 336" transform="translate(0 2.546)">
          <path id="Path_517-2" data-name="Path 517" d="M231.275,266.862,482.23,411.751V228.991L231.275,84.1Z" transform="translate(-226.586 -75.978)" fill="#fff"/>
          <path id="Path_518-2" data-name="Path 518" d="M239.934,89.1V260.919l242.3,139.889v10.942L231.275,266.862V84.1Z" transform="translate(-226.586 -75.978)" fill="#2d2d2d"/>
          <path id="Path_519-2" data-name="Path 519" d="M227.441,77.459,487.776,227.764V421.357l-260.335-150.3ZM478.394,233.182,236.824,93.71V265.635L478.394,405.106Z" transform="translate(-227.441 -77.459)" fill="#0081b4"/>
          <g id="Group_335-2" data-name="Group 335" transform="translate(5.081 9.007)">
            <path id="Path_520-2" data-name="Path 520" d="M231.6,84.824l4.3,7.24V263.993L477.35,403.4l3.713,7.11L231.6,266.474Z" transform="translate(-231.596 -84.824)" fill="#027396"/>
          </g>
        </g>
      </g>
      <g id="Group_338" data-name="Group 338" transform="translate(328.366 177.905)" style="mix-blend-mode: multiply;isolation: isolate">
        <path id="Path_521" data-name="Path 521" d="M296.742,190.054a3.423,3.423,0,0,1-.4.773C296.133,190.976,296.475,190.449,296.742,190.054Z" transform="translate(-273.204 -152.335)" fill="#bcbcbc"/>
      </g>
      <g id="Group_342" data-name="Group 342" transform="translate(326.719 148.838)">
        <g id="Group_339" data-name="Group 339" transform="translate(29.171 28.352)" opacity="0.5">
          <path id="Path_523" data-name="Path 523" d="M379.612,202.683l.755-.685c-2.182-2.4-5.052-2.983-7.826-3.545a17.554,17.554,0,0,1-4.987-1.519,10.286,10.286,0,0,1-3.045-2.755c-1.3-1.572-2.546-3.065-5.517-3.039-.419,0-.752.02-1.031.033-.958.05-1.155.059-2.4-.766-.653-.43-1.272-.894-1.87-1.342a20.014,20.014,0,0,0-3.84-2.435c-.565-.252-1.112-.489-1.644-.72-3.692-1.6-6.61-2.87-9.528-6.594-.668-.852-1.2-1.606-1.664-2.269-1.953-2.775-2.846-4.037-7.57-3.817-3.109.15-4.279-.647-6.22-1.962-.565-.384-1.184-.8-1.92-1.246a12.33,12.33,0,0,0-1.713-.813,9.224,9.224,0,0,1-1.932-.978,14.257,14.257,0,0,1-1.541-1.337,7.158,7.158,0,0,0-3.646-2.242,8.721,8.721,0,0,0-2.234-.077,5.677,5.677,0,0,1-2.61-.253,4.963,4.963,0,0,1-2.173-2.122,9.634,9.634,0,0,0-1.375-1.734,6.2,6.2,0,0,0-4.028-1.838l-.13,1.01a5.253,5.253,0,0,1,3.459,1.567,8.959,8.959,0,0,1,1.229,1.563,5.9,5.9,0,0,0,2.62,2.492,6.549,6.549,0,0,0,3.061.333,7.92,7.92,0,0,1,1.979.057,6.189,6.189,0,0,1,3.144,1.978,14.9,14.9,0,0,0,1.652,1.431,10.193,10.193,0,0,0,2.138,1.092,11.338,11.338,0,0,1,1.576.744c.718.433,1.322.844,1.874,1.217a9.434,9.434,0,0,0,6.84,2.137c4.161-.2,4.8.706,6.687,3.385.474.674,1.014,1.438,1.7,2.311,3.078,3.927,6.1,5.239,9.923,6.9.528.23,1.073.466,1.634.717a18.928,18.928,0,0,1,3.646,2.319c.609.457,1.24.929,1.919,1.378a3.847,3.847,0,0,0,3.017.932c.267-.013.583-.029.984-.032h.043c2.465,0,3.446,1.18,4.686,2.672a11.3,11.3,0,0,0,3.341,3,18.682,18.682,0,0,0,5.271,1.622C375.072,200.006,377.655,200.529,379.612,202.683Z" transform="translate(-299.917 -158.628)" fill="#620081"/>
        </g>
        <g id="Group_340" data-name="Group 340" transform="translate(0 2.351)" opacity="0.5">
          <path id="Path_524" data-name="Path 524" d="M402.4,208.046l.459-.911a51.1,51.1,0,0,1-4.741-2.857c-3.22-2.095-6.55-4.26-10.1-4.836a31.646,31.646,0,0,0-3.747-.323c-2.374-.106-4.617-.207-7.009-1.59-1.991-1.154-3.212-2.99-4.5-4.933-1.432-2.154-2.912-4.381-5.527-5.61-.746-.352-1.515-.641-2.259-.92a16.564,16.564,0,0,1-3.832-1.827,27.133,27.133,0,0,1-2.692-2.272,17.7,17.7,0,0,0-4.678-3.446,5.353,5.353,0,0,0-2.358-.319,5.236,5.236,0,0,1-1.738-.153,7.226,7.226,0,0,1-2.519-1.908,11.649,11.649,0,0,0-1.8-1.569,8.357,8.357,0,0,0-3.276-1.167c-.341-.068-.7-.138-1.092-.23a12.3,12.3,0,0,1-4.423-2.229c-.531-.368-1.076-.747-1.678-1.117a6.32,6.32,0,0,0-2.5-.8,7.434,7.434,0,0,1-1.655-.4,13.964,13.964,0,0,1-3.353-2.148c-.552-.433-1.124-.878-1.723-1.279-4.727-3.158-9.814-5.87-14.734-8.492-2.124-1.134-4.251-2.267-6.358-3.44-.652-.362-1.334-.711-2.026-1.064a34.884,34.884,0,0,1-4.095-2.33,20.231,20.231,0,0,0-4.206-2.072,22.686,22.686,0,0,1-3.591-1.68c-1.715-1.055-3.373-2.126-5.022-3.191-2.889-1.865-5.875-3.792-9.071-5.562l-.494.892c3.165,1.751,6.137,3.671,9.013,5.527,1.655,1.069,3.317,2.143,5.04,3.2a23.51,23.51,0,0,0,3.747,1.759,19.191,19.191,0,0,1,4,1.962,35.689,35.689,0,0,0,4.212,2.4c.682.347,1.353.691,1.995,1.048,2.112,1.175,4.244,2.31,6.374,3.446,4.9,2.612,9.964,5.313,14.647,8.441.569.38,1.124.814,1.663,1.235a14.938,14.938,0,0,0,3.6,2.291,8.35,8.35,0,0,0,1.87.462,5.432,5.432,0,0,1,2.128.665c.586.36,1.115.728,1.63,1.085a13.253,13.253,0,0,0,4.771,2.384c.4.1.775.169,1.13.237a7.463,7.463,0,0,1,2.92,1.026,10.665,10.665,0,0,1,1.627,1.432,7.892,7.892,0,0,0,2.931,2.159,6.144,6.144,0,0,0,2.067.2,4.547,4.547,0,0,1,1.935.236,17.017,17.017,0,0,1,4.39,3.26,28.544,28.544,0,0,0,2.8,2.357,17.6,17.6,0,0,0,4.058,1.946c.724.273,1.475.555,2.184.888,2.357,1.109,3.695,3.122,5.112,5.253,1.3,1.956,2.645,3.978,4.842,5.25,2.606,1.51,4.97,1.616,7.474,1.727a30.977,30.977,0,0,1,3.63.311c3.333.542,6.571,2.646,9.7,4.684A51.92,51.92,0,0,0,402.4,208.046Z" transform="translate(-276.064 -137.367)" fill="#fff"/>
        </g>
        <g id="Group_341" data-name="Group 341" transform="translate(11.633)" opacity="0.5">
          <path id="Path_525" data-name="Path 525" d="M377.229,187.5l.711-.733c-4.718-4.576-11.593-6.118-17.659-7.478-.7-.158-1.4-.313-2.08-.472-2.225-.517-3.862-2.085-5.6-3.746-.723-.692-1.469-1.408-2.255-2.029-.675-.533-1.35-1.082-2.025-1.633-1.772-1.442-3.605-2.934-5.5-4.2a42.129,42.129,0,0,0-4.88-2.676,36.666,36.666,0,0,1-5.36-3.019,56.727,56.727,0,0,0-9.125-5.078c-1.033-.492-2.075-.989-3.128-1.519a35.262,35.262,0,0,1-7.492-4.756c-.585-.512-1.14-1.092-1.726-1.7a16.621,16.621,0,0,0-3.52-3.049,17.263,17.263,0,0,0-3.543-1.436,15.44,15.44,0,0,1-3.565-1.475,28.573,28.573,0,0,0-6.525-2.963,15.3,15.3,0,0,1-3.336-1.82,12.536,12.536,0,0,0-4.9-2.276l-.148,1.009a11.58,11.58,0,0,1,4.493,2.119,16.309,16.309,0,0,0,3.566,1.932,27.817,27.817,0,0,1,6.32,2.865,16.433,16.433,0,0,0,3.787,1.579,16.406,16.406,0,0,1,3.342,1.345,15.944,15.944,0,0,1,3.293,2.873c.576.6,1.172,1.222,1.789,1.765a36.2,36.2,0,0,0,7.707,4.9c1.059.533,2.108,1.033,3.145,1.529a55.936,55.936,0,0,1,8.969,4.984,37.436,37.436,0,0,0,5.507,3.109,41.059,41.059,0,0,1,4.762,2.607c1.854,1.238,3.668,2.714,5.421,4.141.68.553,1.359,1.1,2.036,1.642.748.591,1.476,1.289,2.183,1.964,1.756,1.683,3.572,3.423,6.07,4,.685.159,1.382.314,2.088.472C365.992,181.616,372.719,183.125,377.229,187.5Z" transform="translate(-285.576 -135.445)" fill="#fff"/>
        </g>
      </g>
      <g id="Group_348" data-name="Group 348" transform="translate(368.128 209.756)">
        <g id="Group_343" data-name="Group 343" transform="translate(19.922)">
          <path id="Path_526" data-name="Path 526" d="M334.469,197.379s-1.23-.977-.679-3.565a39.432,39.432,0,0,0,.679-5.561l-4.882-1.783s-1.062,0-1.167.213a10.587,10.587,0,0,0,.955,2.715c.424.977-.763,2.166-.955,1.573s.275-1.4-.191-2.166-.849-.593-.89,1.147-.426,3.352,1.081,4.752,1.762,4.925,1.762,4.925Z" transform="translate(-325.979 -184.985)" fill="url(#linear-gradient-2)"/>
          <path id="Path_527" data-name="Path 527" d="M361.874,234.379s-18.1-16.716-20.022-22.114-6.761-17.6-6.761-17.6-5.662,1.057-6.882,2.934c2.562,9.624,8.177,24.764,8.664,25.115s-2.074-3.051.489.352,12.2,16.2,13.179,16.548S361.874,234.379,361.874,234.379Z" transform="translate(-325.768 -183.159)" fill="#ff669d"/>
          <path id="Path_528" data-name="Path 528" d="M328.123,186.105l7,7-1.868,1.569-6.409-7.427-.637-1.995Z" transform="translate(-326.213 -185.256)" fill="#630084"/>
        </g>
        <g id="Group_347" data-name="Group 347" transform="translate(0 22.286)">
          <path id="Path_529" data-name="Path 529" d="M317.7,340.5c8.789,5.075,23.036,5.075,31.827,0s8.788-13.3,0-18.371-23.037-5.074-31.827,0S308.908,335.424,317.7,340.5Z" transform="translate(-309.66 -177.873)" fill="#e8e8e8" style="mix-blend-mode: multiply;isolation: isolate"/>
          <g id="Group_346" data-name="Group 346">
            <path id="Path_530" data-name="Path 530" d="M329.616,329.734s.519,3.972.161,4.881-2.489.72-3.284.5c-2.618-.741-8.912-3.861-8.752-6.45.061-1.057,1.655-.952,4.219.247s4.015.992,4.346.251S329.616,329.734,329.616,329.734Z" transform="translate(-308.181 -175.73)" fill="#2d2d2d"/>
            <path id="Path_531" data-name="Path 531" d="M344.641,328.2s.517,3.971.158,4.88-2.483.718-3.282.492c-2.614-.74-8.913-3.857-8.753-6.45.066-1.053,1.657-.953,4.219.247s4.016.994,4.349.251S344.641,328.2,344.641,328.2Z" transform="translate(-304.832 -176.072)" fill="#2d2d2d"/>
            <g id="Group_345" data-name="Group 345">
              <g id="Group_344" data-name="Group 344">
                <path id="Path_532" data-name="Path 532" d="M344.982,342.241c.241-3.511,2.115-38.078,2.232-39.156,1.075-10.069,10.308-18.744,10.858-20.886,1.991-7.789,0-18.272,0-18.272l-18.184.761a180.319,180.319,0,0,0-4.422,36.608c-.034,3.643,3.783,37.237,3.814,40.786Z" transform="translate(-304.229 -190.001)" fill="#162b87"/>
                <path id="Path_533" data-name="Path 533" d="M335.957,305.416c1.552-3.626,8.984-15.268,10.546-18.685,7.3-13.787,5.574-21.906,5.574-21.906l-22.719-.9s-3.987,28.017-5.754,35.167c-.285,1.14.6,44.182.36,45.123l4.634.443Z" transform="translate(-306.886 -190.001)" fill="#1b2e9b"/>
                <rect id="Rectangle_83" data-name="Rectangle 83" width="23.525" height="30.908" transform="translate(0 28.383) rotate(-29.455)" fill="#e8e8e8"/>
                <rect id="Rectangle_84" data-name="Rectangle 84" width="22.787" height="30.055" transform="translate(0.508 28.492) rotate(-29.456)" fill="url(#linear-gradient-3)"/>
                <path id="Path_534" data-name="Path 534" d="M345.314,209.514a5.535,5.535,0,0,0-6.172,2.081,3.01,3.01,0,0,0-.706,1.689,8,8,0,0,1-1.953,3.759c-1.623,1.982-1.382,6.457-.534,8.885a3.41,3.41,0,0,0,3.485.393l-.728,6.087,11.759-1.4s-1.317-2.973,1.535-7.628,3.312-7.317.611-10.136-7.3-3.729-7.3-3.729" transform="translate(-304.268 -202.191)" fill="url(#linear-gradient-4)"/>
                <path id="Path_535" data-name="Path 535" d="M343.044,203.479s1.844,2.456,9.057,5.546,5.683,8.294,3.77,10.555c1.9,1.58-5.6,7.949-6.675,11.067a9.76,9.76,0,0,1-7.267-3.033,7.133,7.133,0,0,1,1.244-5.423c1.9-2.437,1.1-5.722-.259-5.359-.294.081-2.15,4.34-2.352,4.32a2.337,2.337,0,0,1-.547-.19c-.3-.187.5-1.163.813-3.172.146-.959-.379-3.267-.143-3.752a20.048,20.048,0,0,1,1.775-2.379l-1.494-.817a1.58,1.58,0,0,1-1.216-2.1,16.605,16.605,0,0,1,3.293-5.265" transform="translate(-303.3 -203.479)" fill="#70380f"/>
                <path id="Path_536" data-name="Path 536" d="M328.117,236.689s4.3-5.063,13.261-8.4a43.453,43.453,0,0,1,8.97-2.118s8.068-.819,12.067.789c2.266.912,3.918,11.98.994,19.262s-4.867,15.82-2.631,19.925,3.6,16.027,3.6,16.027a30.424,30.424,0,0,1-9.89,3.434s-2.061-10.712-2.329-10.712c-.141,0-1.075,11.371-1.075,11.371a43.468,43.468,0,0,1-25.3-4.58c.959-5.391,4.84-15.826,5.87-20.855s-3.536-24.138-3.536-24.138" transform="translate(-306.388 -198.467)" fill="#ff3e7a"/>
                <path id="Path_537" data-name="Path 537" d="M321.243,247.538a19.265,19.265,0,0,0,0-4.458,3.948,3.948,0,0,1,.78-3.282c.427-.609-.3-2.25-1.64-.79a6.131,6.131,0,0,0-1.52,3.181l-3.4-6.018s-2.843,6.123,1.981,14.166C320.6,251.96,321.243,247.538,321.243,247.538Z" transform="translate(-308.874 -196.19)" fill="url(#linear-gradient-5)"/>
                <path id="Path_538" data-name="Path 538" d="M328.379,244.523a9.247,9.247,0,0,1,2.266-9.677,7.418,7.418,0,0,1,1.856-1.31c4.2-2.072,7.1,1.48,7.266,9.12s-.633,18.8-5.035,25.89c-2.693,4.076-13.453,2.285-19-17.314,1.4-1.989,6.4-3.328,6.4-3.328s4.947,12.578,6.842,10.915c2.469-2.172.975-9.686-.6-14.3" transform="translate(-308.627 -196.907)" fill="#ff669d"/>
              </g>
            </g>
          </g>
        </g>
      </g>
      <g id="Group_358" data-name="Group 358" transform="translate(48.881 174.391)">
        <g id="Group_352" data-name="Group 352" transform="translate(0 69.243)">
          <g id="Group_349" data-name="Group 349" transform="translate(0 19.527)">
            <path id="Path_539" data-name="Path 539" d="M240.025,435.7,368.207,361.69l13.518-7.737L196.246,262.41,48.881,325.177Z" transform="translate(-48.881 -221.459)" fill="#e8e8e8" style="mix-blend-mode: multiply;isolation: isolate"/>
            <path id="Path_540" data-name="Path 540" d="M222.978,425.7,351.162,351.7V322.967L179.2,252.415,51.019,326.42Z" transform="translate(-48.404 -223.687)" fill="#efc100"/>
            <path id="Path_541" data-name="Path 541" d="M179.2,244.864,344.788,321.7v26.131l-121.81,70.327L51.019,318.869Z" transform="translate(-48.404 -225.371)" fill="#e5e5e5"/>
            <path id="Path_542" data-name="Path 542" d="M179.2,239.4l27.455,12.738v82.271H344.788v7.951l-121.81,70.328L51.019,313.408Z" transform="translate(-48.404 -226.588)" fill="#f4f4f4"/>
            <path id="Path_543" data-name="Path 543" d="M179.2,234.4l27.455,12.739V335.53H344.788v1.831l-121.81,70.327L51.019,308.4Z" transform="translate(-48.404 -227.704)" fill="#fff"/>
            <path id="Path_544" data-name="Path 544" d="M222.978,402.211l128.184-74.006L179.2,228.925l-128.18,74Z" transform="translate(-48.404 -228.925)" fill="#ffeb33"/>
          </g>
          <g id="Group_350" data-name="Group 350" transform="translate(39.543 10.217)">
            <path id="Path_545" data-name="Path 545" d="M220.423,380.614,324.192,320.7V297.443L184.983,240.331,81.215,300.237Z" transform="translate(-81.215 -217.072)" fill="#d11156"/>
            <path id="Path_546" data-name="Path 546" d="M184.983,234.217l134.05,62.2v21.152L220.423,374.5,81.215,294.124Z" transform="translate(-81.215 -218.435)" fill="#e5e5e5"/>
            <path id="Path_547" data-name="Path 547" d="M184.983,229.8l22.224,10.31v66.6H319.033v6.436l-98.61,56.934L81.215,289.705Z" transform="translate(-81.215 -219.42)" fill="#f4f4f4"/>
            <path id="Path_548" data-name="Path 548" d="M184.983,225.743l22.224,10.315v71.554H319.033V309.1l-98.61,56.931L81.215,285.655Z" transform="translate(-81.215 -220.325)" fill="#fff"/>
            <path id="Path_549" data-name="Path 549" d="M220.423,361.594l103.768-59.911L184.983,221.313,81.215,281.222Z" transform="translate(-81.215 -221.313)" fill="#ff3e7a"/>
          </g>
          <g id="Group_351" data-name="Group 351" transform="translate(57.522)">
            <path id="Path_550" data-name="Path 550" d="M214.522,348.681l88.411-51.042V277.823L184.326,229.162,95.916,280.2Z" transform="translate(-95.916 -209.345)" fill="#0081b4"/>
            <path id="Path_551" data-name="Path 551" d="M184.326,223.952l114.213,52.989v18.026l-84.016,48.506L95.916,275Z" transform="translate(-95.916 -210.507)" fill="#0081b4"/>
            <path id="Path_552" data-name="Path 552" d="M184.326,220.186l18.937,8.788v56.743h95.276V291.2l-84.016,48.508L95.916,271.234Z" transform="translate(-95.916 -211.346)" fill="#f4f4f4"/>
            <path id="Path_553" data-name="Path 553" d="M184.326,216.734l18.937,8.786v60.966h95.276v1.261l-84.016,48.508L95.916,267.779Z" transform="translate(-95.916 -212.116)" fill="#fff"/>
            <path id="Path_554" data-name="Path 554" d="M214.522,332.478l88.411-51.042L184.326,212.958,95.916,264Z" transform="translate(-95.916 -212.958)" fill="#0081b4"/>
            <path id="Path_555" data-name="Path 555" d="M273.324,265.153l-80.69,46.585-90.4-52.192,80.687-46.588Z" transform="translate(-94.508 -212.958)" fill="#0081b4"/>
          </g>
        </g>
        <g id="Group_357" data-name="Group 357" transform="translate(37.193 0)">
          <g id="Group_354" data-name="Group 354">
            <path id="Path_556" data-name="Path 556" d="M226.909,207.909v41.548c0,8.545-5.646,17.09-16.939,23.609-22.587,13.043-59.206,13.043-81.8,0-11.3-6.521-16.941-15.068-16.938-23.617V207.909Z" transform="translate(-72.171 -144.84)" fill="url(#linear-gradient-6)"/>
            <g id="Group_353" data-name="Group 353">
              <path id="Path_557" data-name="Path 557" d="M178.423,263.113l99.132-57.233v-2.742H79.293v2.742Z" transform="translate(-79.293 -145.904)" fill="#282828"/>
              <path id="Path_558" data-name="Path 558" d="M178.423,270.8l99.132-57.232-99.132-57.233-99.13,57.233Z" transform="translate(-79.293 -156.339)" fill="#5b5b5b"/>
            </g>
          </g>
          <g id="Group_356" data-name="Group 356" transform="translate(41.97 54.43)">
            <g id="Group_355" data-name="Group 355" transform="translate(2.375 1.27)">
              <path id="Path_559" data-name="Path 559" d="M115.553,266.313h3.428V231.068l52.127-26.118-1.536-3.066L115.553,228.95Z" transform="translate(-115.553 -201.884)" fill="#ffd629"/>
            </g>
            <path id="Path_560" data-name="Path 560" d="M154.559,204.272c0,1.893,2.529,3.428,5.654,3.428s5.656-1.535,5.656-3.428-2.533-3.427-5.656-3.427S154.559,202.38,154.559,204.272Z" transform="translate(-104.481 -200.845)" fill="#ffd629"/>
            <path id="Path_561" data-name="Path 561" d="M113.611,271.366V253.921a3.986,3.986,0,1,1,7.971,0v17.446Z" transform="translate(-113.611 -189.899)" fill="#fff42c"/>
          </g>
        </g>
      </g>
      <g id="Group_360" data-name="Group 360" transform="translate(441.28 302.694)">
        <path id="Path_562" data-name="Path 562" d="M369.776,389.439l.59,5.709,25.7-2.4,42.526-23.368V266.153h-13.2v95.6Z" transform="translate(-369.73 -260.157)" fill="#e8e8e8" style="mix-blend-mode: multiply;isolation: isolate"/>
        <path id="Path_563" data-name="Path 563" d="M428.451,369.376V266.153h-13.2v95.6Z" transform="translate(-359.591 -260.157)" fill="#bcbcbc" style="mix-blend-mode: multiply;isolation: isolate"/>
        <g id="Group_359" data-name="Group 359">
          <path id="Path_564" data-name="Path 564" d="M370.881,376.191c-.7,1.5-1.88,18.685-.506,20.051,1.181,1.159,14.353-11.753,15.055-13.253l52.885-113.21a3,3,0,0,0-1.446-3.986l-9.118-4.26a3,3,0,0,0-3.984,1.448Z" transform="translate(-369.738 -261.25)" fill="#f2a214"/>
          <path id="Path_565" data-name="Path 565" d="M427.751,261.512l6.16,2.878L372.88,395.026c-1.285.956-2.227,1.466-2.5,1.195-.8-.794-.737-6.912-.407-12.2l57.311-122.676A2.805,2.805,0,0,1,427.751,261.512Z" transform="translate(-369.738 -261.229)" fill="#ffb41f"/>
          <path id="Path_566" data-name="Path 566" d="M377.1,368.437c-3.187,2.884-6.183,5.251-6.72,4.728-.6-.608-.717-4.285-.591-8.338a3.315,3.315,0,0,1,.907-.075C373.308,365.054,376.379,365.947,377.1,368.437Z" transform="translate(-369.738 -238.174)" fill="#333"/>
          <path id="Path_567" data-name="Path 567" d="M371.982,358.769c1.627-1.777,3.026-3.083,4.251-2.711,1.381.415,1.679,3.572,1.317,6.031.794-1.464,3.139-3.55,5.64-2.76,1.441.456,2.428,2.346,2.245,2.733l-.015.034c-.383.819-4.5,5.048-8.335,8.525-.717-2.49-3.788-3.383-6.4-3.685a3.316,3.316,0,0,0-.907.075c.163-5.136.706-10.876,1.1-11.712l.161-.347C372.4,355.257,372.288,357.037,371.982,358.769Z" transform="translate(-369.73 -240.358)" fill="#e5a661"/>
          <path id="Path_568" data-name="Path 568" d="M381.157,358.4a3.549,3.549,0,0,1,.987.161c1.441.456,2.428,2.346,2.245,2.733l-.015.034c-.383.819-4.5,5.048-8.335,8.525a3.938,3.938,0,0,0-1.57-2.118Z" transform="translate(-368.683 -239.589)" fill="#efb57b"/>
          <path id="Path_569" data-name="Path 569" d="M408.218,277.9l6.968-14.923a3,3,0,0,1,3.984-1.448l9.118,4.26a3,3,0,0,1,1.446,3.986L422.766,284.7Z" transform="translate(-361.158 -261.25)" fill="#ff3131"/>
          <rect id="Rectangle_85" data-name="Rectangle 85" width="6.254" height="16.06" transform="matrix(0.424, -0.906, 0.906, 0.424, 47.059, 16.65)" fill="#f4f4f4"/>
        </g>
      </g>
      <g id="Group_361" data-name="Group 361" transform="translate(174.044 97.3)">
        <path id="Path_570" data-name="Path 570" d="M151.225,93.3l124.34,18.752-47.9,17.049Z" transform="translate(-151.225 -93.303)" fill="#fff"/>
        <path id="Path_571" data-name="Path 571" d="M228.441,128.826l-2.78,23.041L151.225,93.3Z" transform="translate(-151.225 -93.303)" fill="#d8d8d8"/>
        <path id="Path_572" data-name="Path 572" d="M213.228,137.438l12.433,14.428L151.225,93.3Z" transform="translate(-151.225 -93.303)" fill="#b2b2b2"/>
        <path id="Path_573" data-name="Path 573" d="M151.225,93.3l32.478,71.79,29.526-27.654Z" transform="translate(-151.225 -93.303)" fill="#fff"/>
      </g>
      <g id="Group_362" data-name="Group 362" transform="translate(426.009 111.831)">
        <path id="Path_574" data-name="Path 574" d="M357.252,105.185l114.8,17.313-44.223,15.74Z" transform="translate(-357.252 -105.185)" fill="#fff"/>
        <path id="Path_575" data-name="Path 575" d="M428.542,137.981l-2.568,21.272-68.723-54.069Z" transform="translate(-357.252 -105.185)" fill="#d8d8d8"/>
        <path id="Path_576" data-name="Path 576" d="M414.5,145.932l11.477,13.321-68.723-54.069Z" transform="translate(-357.252 -105.185)" fill="#b2b2b2"/>
        <path id="Path_577" data-name="Path 577" d="M357.252,105.185l29.984,66.279L414.5,145.932Z" transform="translate(-357.252 -105.185)" fill="#fff"/>
      </g>
      <g id="Group_363" data-name="Group 363" transform="translate(109.379 433.158)">
        <path id="Path_578" data-name="Path 578" d="M101.912,374.653l6.762-1.981h0l.583-.337c4.98-2.874,13.085-2.874,18.064,0l27.2,14.038c4.98,2.875,4.178,8.758-.8,11.634l-1.812,1.046c-4.981,2.878-13.088,2.878-18.068,0l-15.7-9.065v-2.752l20.227,9.2a9.971,9.971,0,0,0,9.015,0l1.814-1.047c2.486-1.435,2.486-3.768,0-5.2l-26.4-15.239a9.974,9.974,0,0,0-9.012,0l-.86.5-6.127,3.538c-2.486,1.436-2.484,3.769,0,5.2l25.326,14.623h0l23.42,13.521c5,2.889,13.137,2.889,18.139,0l3.034-1.751c5-2.887,5-7.585,0-10.474l-37.807-21.828v-2.752l43.26,21.408c7.5,4.328,6.571,11.929-.925,16.258l-3.037,1.751c-7.5,4.328-19.693,4.328-27.191,0L111.75,392.274h0l-9.483-5.475C97.286,383.924,96.93,377.528,101.912,374.653Z" transform="translate(-98.349 -367.427)" fill="#e0055f"/>
        <path id="Path_579" data-name="Path 579" d="M102.234,374.119l6.406-3.7h0l.583-.337c4.98-2.874,13.085-2.874,18.064,0l26.4,15.241c4.98,2.876,4.982,7.556,0,10.432l-1.812,1.046c-4.981,2.878-13.088,2.878-18.068,0l-15.7-9.065,4.526-2.613,15.7,9.065a9.971,9.971,0,0,0,9.015,0l1.814-1.047c2.486-1.435,2.486-3.768,0-5.2l-26.4-15.239a9.974,9.974,0,0,0-9.012,0l-.86.5-6.127,3.538c-2.486,1.436-2.484,3.769,0,5.2l25.326,14.623h0l23.42,13.521c5,2.889,13.137,2.889,18.139,0l3.034-1.751c5-2.887,5-7.585,0-10.474l-37.807-21.828,4.526-2.613,37.809,21.829c7.5,4.328,7.5,11.37,0,15.7l-3.037,1.751c-7.5,4.328-19.693,4.328-27.191,0l-39.266-22.669h0l-9.483-5.475C97.253,381.674,97.253,376.995,102.234,374.119Z" transform="translate(-98.316 -367.929)" fill="#ff3e7a"/>
      </g>
      <g id="Group_364" data-name="Group 364" transform="translate(415.55 443.83)">
        <path id="Path_580" data-name="Path 580" d="M434.138,383.38l-6.762-1.982h0l-.582-.336c-4.981-2.875-13.087-2.875-18.067,0l-27.2,14.038c-4.98,2.875-4.176,8.758.8,11.633l1.814,1.047c4.981,2.876,13.087,2.876,18.067,0l15.7-9.065v-2.752l-20.227,9.2a9.968,9.968,0,0,1-9.013,0l-1.815-1.047c-2.485-1.435-2.485-3.769,0-5.2l26.4-15.239a9.976,9.976,0,0,1,9.013,0l.86.5,6.127,3.538c2.486,1.435,2.485,3.769,0,5.2l-25.326,14.623h0l-23.42,13.522c-5,2.887-13.138,2.887-18.139,0l-3.035-1.751c-5-2.889-5-7.586,0-10.473L397.142,387v-2.752L353.881,405.66c-7.5,4.328-6.572,11.93.924,16.258l3.037,1.753c7.5,4.328,19.693,4.328,27.192,0L424.3,401h0l9.482-5.475C438.762,392.651,439.119,386.255,434.138,383.38Z" transform="translate(-348.699 -376.153)" fill="#0e9e67"/>
        <path id="Path_581" data-name="Path 581" d="M433.693,382.846l-6.4-3.7h0l-.582-.336c-4.981-2.875-13.087-2.875-18.067,0l-26.4,15.241c-4.98,2.875-4.981,7.556,0,10.431l1.814,1.047c4.981,2.876,13.087,2.876,18.067,0l15.7-9.065-4.526-2.613-15.7,9.065a9.969,9.969,0,0,1-9.013,0l-1.815-1.047c-2.485-1.435-2.485-3.769,0-5.2l26.4-15.239a9.976,9.976,0,0,1,9.013,0l.86.5,6.127,3.538c2.486,1.435,2.485,3.769,0,5.2l-25.326,14.623h0l-23.42,13.522c-5,2.887-13.138,2.887-18.139,0l-3.035-1.751c-5-2.889-5-7.586,0-10.474l37.809-21.829-4.527-2.612-37.809,21.828c-7.5,4.328-7.5,11.371,0,15.7l3.037,1.753c7.5,4.328,19.693,4.328,27.192,0l39.266-22.669h0l9.482-5.475C438.674,390.4,438.674,385.721,433.693,382.846Z" transform="translate(-348.611 -376.655)" fill="#3bd198"/>
      </g>
    </g>
  </g>
</svg>
